<?xml version="1.0" encoding="UTF-8"?>
<!DOCTYPE svg PUBLIC "-//W3C//DTD SVG 1.1//EN" "http://www.w3.org/Graphics/SVG/1.1/DTD/svg11.dtd">
<!-- Creator: CorelDRAW 2020 (64-Bit) -->
<svg xmlns="http://www.w3.org/2000/svg" xml:space="preserve" width="62px" height="62px" version="1.1" style="shape-rendering:geometricPrecision; text-rendering:geometricPrecision; image-rendering:optimizeQuality; fill-rule:evenodd; clip-rule:evenodd"
viewBox="0 0 22.12 22.12"
 xmlns:xlink="http://www.w3.org/1999/xlink"
 xmlns:xodm="http://www.corel.com/coreldraw/odm/2003">
 <defs>
  <style type="text/css">
   <![CDATA[
    .fil1 {fill:#3065AE;fill-rule:nonzero}
    .fil0 {fill:white;fill-rule:nonzero}
   ]]>
  </style>
 </defs>
 <g id="_35">
  <metadata id="CorelCorpID_0Corel-Layer"/>
  <g id="_2205383350608">
   <polygon class="fil0" points="22.12,22.12 0,22.12 0,0 22.12,0 "/>
   <path class="fil1" d="M17.59 9.38l-2.05 0 0 -2.97 0.73 0c0.06,0 0.11,-0.05 0.11,-0.11l0 -1.68c0,-0.06 -0.05,-0.11 -0.11,-0.11l-1.68 0c-0.06,0 -0.11,0.05 -0.11,0.11l0 0.73 -2.63 0 -0.55 -1.12c-0.01,-0.04 -0.05,-0.06 -0.1,-0.06 -0.04,0 -0.08,0.02 -0.1,0.06l-0.54 1.12 -2.66 0 0 -0.73c0,-0.06 -0.05,-0.11 -0.11,-0.11l-1.68 0c-0.06,0 -0.11,0.05 -0.11,0.11l0 1.68c0,0.06 0.05,0.11 0.11,0.11l0.73 0 0 2.97 -2.02 0c-0.07,0 -0.12,0.05 -0.12,0.11l0 2.7c0,0.06 0.05,0.11 0.12,0.11l2.02 0 0 3.45 -0.73 0c-0.06,0 -0.11,0.05 -0.11,0.11l0 1.68c0,0.06 0.05,0.11 0.11,0.11l1.68 0c0.06,0 0.11,-0.05 0.11,-0.11l0 -0.73 1.96 0c0.09,0.49 0.51,0.85 1.02,0.85l0.65 0c0.51,0 0.93,-0.36 1.02,-0.85l1.93 0 0 0.73c0,0.06 0.05,0.11 0.11,0.11l1.68 0c0.06,0 0.11,-0.05 0.11,-0.11l0 -1.68c0,-0.06 -0.05,-0.11 -0.11,-0.11l-0.73 0 0 -3.45 2.05 0c0.06,0 0.11,-0.05 0.11,-0.11l0 -2.7c0,-0.06 -0.05,-0.11 -0.11,-0.11zm-2.89 -4.65l0 0 1.46 0 0 1.46 -1.46 0 0 -1.46zm-0.22 0.84l0 0 0 0.73c0,0.06 0.05,0.11 0.11,0.11l0.73 0 0 2.97 -2.76 0 0 -2.53c0,0 0,0 0,0 0,-0.01 0,-0.02 0,-0.03 0,0 0,0 0,0 0,-0.01 -0.01,-0.01 -0.01,-0.02 0,0 0,0 0,0l-0.59 -1.23 2.52 0zm-3.08 10.02l0 0 -0.04 -8.35 0.24 -0.24 0.19 0.2 0 8.39 -0.39 0zm-1.33 0l0 0 0 -3.4 0 -2.7 0 -2.44 0.29 0.18 0 8.36 -0.29 0zm0.51 -8.45l0 0 0.17 -0.15 0.39 0.28 0.04 8.32 -0.6 0 0 -8.45zm1.44 0.16l0 0c0,0 0,0 0,-0.01l0.32 -0.23 0 2.43 0 2.7 0 3.4 -0.32 0 0 -8.29zm-0.82 -2.77l0 0 1.11 2.28 -0.34 0.25 -0.29 -0.29c-0.02,-0.02 -0.05,-0.04 -0.08,-0.04 -0.03,0 -0.06,0.02 -0.08,0.04l-0.25 0.25c-0.01,-0.01 -0.01,-0.01 -0.02,-0.01 0,0 0,0 0,0 -0.02,0 -0.04,0.01 -0.06,0.02l-0.38 -0.27c-0.04,-0.03 -0.1,-0.03 -0.14,0l-0.18 0.16c0,0 -0.01,-0.01 -0.02,-0.01 -0.04,0 -0.08,0.03 -0.1,0.07l-0.27 -0.17 0.63 -1.3c0,0 0,0 0,0l0.47 -0.98zm-4.98 0.2l0 0 1.46 0 0 1.46 -1.46 0 0 -1.46zm0.84 1.68l0 0 0.73 0c0.06,0 0.11,-0.05 0.11,-0.11l0 -0.73 2.55 0 -0.56 1.17c-0.03,0.01 -0.04,0.02 -0.06,0.05 -0.02,0.04 -0.01,0.09 0.02,0.12l0 2.47 -2.79 0 0 -2.97zm-2.13 3.19l0 0 4.92 0 0 2.48 -0.71 0 0 -0.78c0,-0.06 -0.05,-0.11 -0.11,-0.11 -0.06,0 -0.11,0.05 -0.11,0.11l0 0.78 -0.83 0 0 -1.35c0,-0.06 -0.05,-0.11 -0.11,-0.11 -0.06,0 -0.11,0.05 -0.11,0.11l0 1.35 -0.84 0 0 -0.78c0,-0.06 -0.05,-0.11 -0.11,-0.11 -0.06,0 -0.11,0.05 -0.11,0.11l0 0.78 -0.83 0 0 -1.35c0,-0.06 -0.05,-0.11 -0.11,-0.11 -0.06,0 -0.11,0.05 -0.11,0.11l0 1.35 -0.83 0 0 -2.48zm2.75 7.83l0 0 -1.46 0 0 -1.46 1.46 0 0 1.46zm0.11 -1.68l0 0 -0.73 0 0 -3.45 2.79 0 0 3.4 0 0.89 -1.95 0 0 -0.73c0,-0.06 -0.05,-0.11 -0.11,-0.11zm4.55 0.88l0 0c0,0.45 -0.36,0.81 -0.81,0.81l-0.65 0c-0.45,0 -0.81,-0.36 -0.81,-0.81l0 -0.81 1.22 0 0 0 1.05 0 0 0.81zm3.82 0.8l0 0 -1.46 0 0 -1.46 1.46 0 0 1.46zm-1.57 -1.68l0 0c-0.06,0 -0.11,0.05 -0.11,0.11l0 0.73 -1.92 0 0 -0.89 0 -3.4 2.76 0 0 3.45 -0.73 0zm2.89 -3.67l0 0 -0.97 0 0 -1.35c0,-0.06 -0.05,-0.11 -0.11,-0.11 -0.06,0 -0.11,0.05 -0.11,0.11l0 1.35 -0.83 0 0 -0.78c0,-0.06 -0.05,-0.11 -0.11,-0.11 -0.06,0 -0.11,0.05 -0.11,0.11l0 0.78 -0.83 0 0 -1.35c0,-0.06 -0.05,-0.11 -0.11,-0.11 -0.07,0 -0.12,0.05 -0.12,0.11l0 1.35 -0.83 0 0 -0.78c0,-0.06 -0.05,-0.11 -0.11,-0.11 -0.06,0 -0.11,0.05 -0.11,0.11l0 0.78 -0.57 0 0 -2.48 4.92 0 0 2.48z"/>
  </g>
 </g>
</svg>
