<?xml version="1.0" encoding="UTF-8"?>
<!DOCTYPE svg PUBLIC "-//W3C//DTD SVG 1.1//EN" "http://www.w3.org/Graphics/SVG/1.1/DTD/svg11.dtd">
<!-- Creator: CorelDRAW 2020 (64-Bit) -->
<svg xmlns="http://www.w3.org/2000/svg" xml:space="preserve" width="204px" height="65px" version="1.1" style="shape-rendering:geometricPrecision; text-rendering:geometricPrecision; image-rendering:optimizeQuality; fill-rule:evenodd; clip-rule:evenodd"
viewBox="0 0 204 64.84"
 xmlns:xlink="http://www.w3.org/1999/xlink"
 xmlns:xodm="http://www.corel.com/coreldraw/odm/2003">
 <defs>
  <style type="text/css">
   <![CDATA[
    .fil5 {fill:#164B9B}
    .fil4 {fill:#3165AE}
    .fil1 {fill:#3F73B1}
    .fil3 {fill:#70B66A}
    .fil2 {fill:#DD5551}
    .fil0 {fill:white}
   ]]>
  </style>
 </defs>
 <g id="_1">
  <metadata id="CorelCorpID_0Corel-Layer"/>
  <g id="_2425526948432">
   <g>
    <polygon class="fil0" points="25.1,6.04 35.08,26.16 15.11,26.16 "/>
    <path class="fil0" d="M38.62 50.2l0 -21.47 5.19 0 0 1.68c0,7.95 6.4,14.4 14.28,14.4l1.84 -0.02 0 5.41 -21.31 0z"/>
    <polygon class="fil0" points="13.86,50.2 13.86,28.73 35.76,28.73 35.76,50.2 "/>
   </g>
   <g>
    <g>
     <path class="fil0" d="M190.99 38.64c-0.32,-1.06 -0.8,-2.06 -1.48,-2.99 -0.72,-0.97 -1.59,-1.69 -2.58,-2.17 -1.03,-0.49 -2.18,-0.74 -3.45,-0.74 -0.56,0 -1.12,0.06 -1.66,0.17 -0.52,0.1 -1.03,0.26 -1.51,0.48 -0.05,0.02 -0.1,0.04 -0.16,0.04 -0.18,0 -0.33,-0.14 -0.33,-0.32l0 -0.02 -8.44 0 0 5.38 0 0c0,0.13 -0.09,0.25 -0.22,0.3 -0.17,0.05 -0.35,-0.03 -0.41,-0.2 -0.08,-0.22 -0.16,-0.43 -0.25,-0.63l0 0 0 0c-0.09,-0.2 -0.19,-0.41 -0.3,-0.61 -0.4,-0.75 -0.91,-1.41 -1.5,-1.98 -0.6,-0.58 -1.29,-1.07 -2.07,-1.46 -0.88,-0.45 -1.87,-0.73 -2.89,-0.91 -1.02,-0.18 -2.07,-0.24 -3.08,-0.24 -1.48,0 -2.92,0.2 -4.25,0.66 -1.19,0.41 -2.29,1.04 -3.25,1.94 -0.14,0.13 -0.28,0.27 -0.42,0.42 -0.13,0.13 -0.25,0.27 -0.37,0.42 -0.06,0.08 -0.15,0.13 -0.26,0.13 -0.18,0 -0.33,-0.14 -0.33,-0.32l0 -2.89 -17.57 0 0 2.43 0 0c0,0.09 -0.04,0.18 -0.12,0.24 -0.13,0.12 -0.34,0.1 -0.46,-0.03 -0.23,-0.27 -0.48,-0.53 -0.76,-0.77 -0.27,-0.23 -0.56,-0.45 -0.86,-0.65 -0.95,-0.63 -2.04,-1.02 -3.17,-1.26 -1.15,-0.24 -2.35,-0.32 -3.49,-0.32 -0.85,0 -1.73,0.05 -2.58,0.17 -0.86,0.13 -1.69,0.33 -2.47,0.64 -0.47,0.19 -0.92,0.42 -1.35,0.69 -0.42,0.27 -0.83,0.58 -1.21,0.91 -0.41,0.36 -0.79,0.74 -1.12,1.15 -0.32,0.4 -0.61,0.84 -0.85,1.3 -0.1,0.19 -0.2,0.39 -0.28,0.59 -0.09,0.21 -0.16,0.41 -0.23,0.61l0 0c-0.04,0.12 -0.14,0.21 -0.27,0.22 -0.17,0.03 -0.34,-0.1 -0.36,-0.27 -0.04,-0.29 -0.1,-0.59 -0.18,-0.89 -0.08,-0.29 -0.17,-0.58 -0.28,-0.87 -0.18,-0.48 -0.4,-0.93 -0.69,-1.35l0.01 0c-0.26,-0.38 -0.57,-0.73 -0.93,-1.04 -0.47,-0.4 -0.99,-0.72 -1.55,-0.97 -0.58,-0.27 -1.21,-0.46 -1.86,-0.57 -0.73,-0.13 -1.51,-0.21 -2.28,-0.26 -0.77,-0.05 -1.56,-0.06 -2.32,-0.06 -0.57,0 -1.14,0.02 -1.7,0.06 -0.57,0.05 -1.13,0.11 -1.68,0.21 -0.47,0.08 -0.95,0.18 -1.41,0.31 -0.46,0.14 -0.9,0.31 -1.31,0.53l0 0 0 0c-0.44,0.23 -0.85,0.5 -1.23,0.81l0 0 0 0c-0.38,0.31 -0.71,0.65 -1,1.05 -0.3,0.4 -0.54,0.85 -0.72,1.32 -0.19,0.48 -0.34,0.98 -0.45,1.48l-0.2 0.88c-0.02,0.15 -0.16,0.26 -0.32,0.26 -0.18,0 -0.32,-0.14 -0.32,-0.32l0 -12.04 -11.28 0 -2 7.52c-0.02,0.11 -0.11,0.2 -0.23,0.23 -0.17,0.04 -0.35,-0.06 -0.39,-0.23l-2 -7.52 -11.32 0 0 23.77 8.3 0 0 -4.11c0,-0.15 0.1,-0.27 0.24,-0.31 0.18,-0.04 0.36,0.06 0.4,0.23l1.1 4.19 7.14 0 1.11 -4.21c0.03,-0.15 0.16,-0.27 0.32,-0.27 0.18,0 0.33,0.15 0.33,0.32l0 4.16 8.28 0 0 -3.5 0 0c0,-0.13 0.09,-0.25 0.22,-0.3 0.17,-0.05 0.35,0.04 0.41,0.2 0.16,0.44 0.37,0.86 0.64,1.24 0.27,0.39 0.6,0.76 0.99,1.09 0.71,0.61 1.53,1.01 2.41,1.26 0.9,0.25 1.85,0.35 2.8,0.35 0.73,0 1.46,-0.05 2.17,-0.17 0.71,-0.11 1.41,-0.3 2.07,-0.56 0.14,-0.06 0.28,-0.12 0.41,-0.18l0.01 -0.01c0.14,-0.06 0.27,-0.13 0.4,-0.2l0.01 -0.01c0.16,-0.08 0.36,-0.03 0.44,0.12l0.39 0.67 8.72 0 -0.99 -1.96 0 0c-0.09,-0.18 -0.19,-0.38 -0.27,-0.58l-0.01 -0.02c-0.09,-0.22 -0.18,-0.44 -0.23,-0.66 -0.05,-0.22 -0.07,-0.46 -0.09,-0.71 -0.01,-0.24 -0.01,-0.48 -0.01,-0.68l0 -0.64 0 0c0,-0.13 0.08,-0.25 0.21,-0.3 0.17,-0.05 0.36,0.03 0.42,0.2 0.04,0.11 0.08,0.22 0.13,0.33 0.04,0.11 0.09,0.21 0.14,0.31 0.27,0.54 0.59,1.04 0.96,1.51 0.37,0.47 0.79,0.91 1.27,1.3 0.48,0.41 1.01,0.76 1.56,1.05 0.58,0.29 1.2,0.53 1.84,0.7 0.72,0.2 1.48,0.32 2.24,0.4 0.77,0.08 1.55,0.1 2.31,0.1 0.82,0 1.65,-0.04 2.47,-0.17 0.81,-0.12 1.61,-0.33 2.35,-0.64 0.66,-0.27 1.27,-0.61 1.82,-1.01 0.54,-0.38 1.04,-0.83 1.47,-1.35 0.43,-0.5 0.8,-1.05 1.1,-1.63 0.31,-0.6 0.55,-1.23 0.73,-1.9l0.41 -1.51 -8.48 -0.94 -0.35 1.06c-0.06,0.19 -0.14,0.4 -0.25,0.59 -0.12,0.21 -0.27,0.41 -0.47,0.55 -0.17,0.13 -0.37,0.21 -0.57,0.25 -0.19,0.05 -0.39,0.06 -0.57,0.06 -0.26,0 -0.49,-0.03 -0.71,-0.11 -0.22,-0.09 -0.41,-0.22 -0.6,-0.42 -0.24,-0.26 -0.38,-0.6 -0.46,-0.97 -0.07,-0.33 -0.09,-0.68 -0.09,-0.97 0,-0.31 0.02,-0.73 0.1,-1.13 0.08,-0.41 0.22,-0.82 0.47,-1.11l0.01 -0.02c0.19,-0.21 0.39,-0.35 0.63,-0.45 0.22,-0.08 0.46,-0.12 0.73,-0.12 0.16,0 0.39,0.01 0.6,0.05 0.16,0.03 0.32,0.09 0.45,0.17l0.02 0.02c0.13,0.09 0.23,0.22 0.3,0.35l0 0c0.06,0.12 0.11,0.25 0.14,0.36l0.31 1.16 8.54 -1.1c-0.01,-0.02 -0.01,-0.05 -0.01,-0.08 0,-0.17 0.14,-0.31 0.32,-0.31l2.05 0 0.01 0c0.18,0 0.32,0.14 0.32,0.31l0 10.66 8.85 0 0 -10.65 0 -0.01c0,-0.17 0.14,-0.31 0.32,-0.31l2.43 0 0 0c0.02,0 0.03,0 0.05,0 0.18,0.03 0.3,0.19 0.27,0.36 -0.04,0.26 -0.07,0.54 -0.09,0.81 -0.02,0.27 -0.03,0.55 -0.03,0.84 0,0.93 0.11,1.85 0.35,2.72 0.23,0.82 0.57,1.62 1.04,2.36 0.45,0.71 0.97,1.36 1.58,1.91 0.58,0.53 1.23,0.97 1.96,1.32 0.83,0.39 1.74,0.64 2.68,0.79 0.95,0.15 1.93,0.2 2.86,0.2 1.03,0 2.13,-0.06 3.19,-0.23 1.06,-0.17 2.09,-0.46 2.99,-0.92 0.8,-0.42 1.51,-0.96 2.13,-1.58 0.62,-0.62 1.15,-1.33 1.62,-2.09 0.05,-0.1 0.16,-0.17 0.29,-0.17 0.17,0 0.32,0.14 0.32,0.31l0 10.14 8.89 0 0 -5.6 0 0c0,-0.04 0,-0.07 0.02,-0.11 0.06,-0.16 0.24,-0.25 0.41,-0.19 0.43,0.15 0.88,0.26 1.32,0.33 0.47,0.07 0.95,0.11 1.44,0.11 1.15,0 2.22,-0.21 3.19,-0.62 0.96,-0.4 1.83,-1.01 2.6,-1.82 0.85,-0.91 1.41,-1.98 1.76,-3.12 0.35,-1.16 0.48,-2.39 0.48,-3.61 0,-1.23 -0.15,-2.45 -0.5,-3.59zm-9.06 5.22l0 0c-0.12,0.15 -0.22,0.23 -0.43,0.23 -0.29,0 -0.48,-0.08 -0.67,-0.3 -0.31,-0.35 -0.36,-1.16 -0.36,-1.59 0,-0.43 0.04,-1.4 0.35,-1.75 0.18,-0.21 0.34,-0.29 0.61,-0.29 0.22,0 0.34,0.1 0.47,0.26 0.31,0.35 0.35,1.22 0.35,1.65 0,0.4 -0.04,1.46 -0.32,1.79z"/>
    </g>
    <polygon class="fil1" points="15.97,48.12 33.92,48.12 33.92,30.71 15.97,30.71 "/>
    <g>
     <path class="fil1" d="M15.97 48.12l17.95 0 0 -10.6c-6.93,0.12 -13.22,1.81 -17.95,4.49l0 6.11z"/>
    </g>
    <polygon class="fil2" points="24.99,10.48 32.26,24.58 17.72,24.58 "/>
    <g>
     <path class="fil2" d="M20.92 18.38l-3.2 6.2 14.54 0 -0.63 -1.22c-2.82,-2.15 -6.49,-3.88 -10.71,-4.98z"/>
    </g>
    <path class="fil3" d="M40.03 48.33l17.95 0 0 -1.95 -0.16 0c-8.8,0 -15.94,-6.92 -15.94,-15.46l-1.85 0 0 17.41z"/>
    <g>
     <path class="fil3" d="M40.03 48.33l17.95 0 0 -1.61c-0.21,-0.12 -0.42,-0.24 -0.63,-0.35 -3.5,-0.1 -6.71,-1.29 -9.29,-3.23 -2.53,-0.52 -5.23,-0.82 -8.03,-0.86l0 6.05z"/>
    </g>
    <path class="fil1" d="M68.39 28.65l8.83 0 3.4 12.8 3.39 -12.8 8.8 0 0 21.05 -5.48 0 0 -16.05 -4.25 16.05 -4.96 0 -4.23 -16.05 0 16.05 -5.5 0 0 -21.05zm33.79 10.73l0 0 -5.76 -0.58c0.22,-0.98 0.53,-1.75 0.94,-2.31 0.41,-0.56 1,-1.04 1.77,-1.45 0.55,-0.3 1.31,-0.53 2.28,-0.69 0.96,-0.17 2.01,-0.25 3.14,-0.25 1.8,0 3.26,0.1 4.35,0.3 1.09,0.19 2.01,0.6 2.74,1.23 0.51,0.43 0.92,1.03 1.21,1.82 0.3,0.8 0.44,1.55 0.44,2.27l0 6.73c0,0.72 0.05,1.28 0.15,1.69 0.09,0.41 0.29,0.92 0.61,1.56l-5.65 0c-0.23,-0.4 -0.38,-0.69 -0.45,-0.9 -0.07,-0.21 -0.13,-0.53 -0.2,-0.97 -0.79,0.74 -1.58,1.26 -2.36,1.58 -1.07,0.42 -2.3,0.63 -3.71,0.63 -1.88,0 -3.3,-0.42 -4.28,-1.26 -0.97,-0.84 -1.45,-1.88 -1.45,-3.12 0,-1.16 0.34,-2.11 1.05,-2.85 0.7,-0.75 1.99,-1.31 3.87,-1.67 2.27,-0.44 3.73,-0.75 4.4,-0.93 0.67,-0.17 1.38,-0.41 2.13,-0.69 0,-0.72 -0.15,-1.22 -0.45,-1.51 -0.31,-0.29 -0.85,-0.43 -1.62,-0.43 -0.99,0 -1.72,0.15 -2.22,0.46 -0.38,0.24 -0.7,0.69 -0.93,1.34zm5.22 3.08l0 0c-0.83,0.29 -1.69,0.54 -2.59,0.76 -1.22,0.32 -2,0.63 -2.32,0.93 -0.34,0.32 -0.51,0.68 -0.51,1.08 0,0.46 0.17,0.83 0.5,1.13 0.33,0.29 0.82,0.44 1.46,0.44 0.67,0 1.29,-0.16 1.88,-0.48 0.57,-0.31 0.98,-0.7 1.22,-1.15 0.25,-0.46 0.36,-1.05 0.36,-1.78l0 -0.93zm21.24 1.28l0 0 5.72 0.63c-0.31,1.16 -0.83,2.16 -1.55,3.01 -0.72,0.85 -1.64,1.5 -2.76,1.97 -1.12,0.47 -2.55,0.7 -4.27,0.7 -1.67,0 -3.06,-0.15 -4.17,-0.45 -1.11,-0.3 -2.07,-0.79 -2.86,-1.46 -0.81,-0.68 -1.43,-1.47 -1.88,-2.38 -0.46,-0.91 -0.69,-2.11 -0.69,-3.62 0,-1.56 0.28,-2.87 0.83,-3.92 0.41,-0.76 0.96,-1.45 1.66,-2.06 0.7,-0.6 1.42,-1.06 2.16,-1.35 1.18,-0.47 2.68,-0.71 4.52,-0.71 2.56,0 4.52,0.45 5.87,1.34 1.34,0.89 2.29,2.19 2.83,3.91l-5.67 0.73c-0.17,-0.66 -0.5,-1.15 -0.97,-1.47 -0.47,-0.34 -1.09,-0.5 -1.89,-0.5 -0.99,0 -1.8,0.35 -2.42,1.04 -0.61,0.7 -0.92,1.74 -0.92,3.15 0,1.26 0.31,2.21 0.92,2.86 0.61,0.65 1.39,0.97 2.34,0.97 0.79,0 1.45,-0.19 1.99,-0.58 0.53,-0.4 0.94,-1 1.21,-1.81zm21.74 -5.01l0 0 -4.37 0 0 10.97 -6.03 0 0 -10.97 -4.37 0 0 -4.27 14.77 0 0 4.27zm19.6 4.79l0 0 -12.08 0c0.11,0.94 0.37,1.64 0.79,2.1 0.58,0.66 1.34,0.99 2.28,0.99 0.59,0 1.15,-0.14 1.69,-0.43 0.32,-0.18 0.67,-0.5 1.05,-0.96l5.93 0.53c-0.91,1.53 -2,2.63 -3.28,3.3 -1.28,0.66 -3.12,0.99 -5.52,0.99 -2.09,0 -3.72,-0.28 -4.92,-0.85 -1.19,-0.57 -2.18,-1.48 -2.97,-2.72 -0.78,-1.24 -1.17,-2.69 -1.17,-4.37 0,-2.38 0.78,-4.31 2.35,-5.78 1.58,-1.48 3.75,-2.22 6.53,-2.22 2.25,0 4.03,0.33 5.33,1 1.3,0.65 2.29,1.61 2.97,2.86 0.68,1.26 1.02,2.89 1.02,4.9l0 0.66zm-6.12 -2.8l0 0c-0.12,-1.13 -0.44,-1.94 -0.94,-2.42 -0.51,-0.49 -1.18,-0.74 -2.01,-0.74 -0.96,0 -1.72,0.37 -2.3,1.11 -0.36,0.46 -0.59,1.14 -0.69,2.05l5.94 0zm8.92 14.78l0 0 0 -21.05 5.64 0 0 2.25c0.78,-0.95 1.5,-1.59 2.15,-1.92 0.88,-0.45 1.85,-0.68 2.91,-0.68 2.11,0 3.73,0.79 4.89,2.34 1.14,1.56 1.72,3.49 1.72,5.79 0,2.54 -0.63,4.47 -1.88,5.81 -1.25,1.33 -2.84,2 -4.75,2 -0.93,0 -1.78,-0.15 -2.54,-0.46 -0.77,-0.3 -1.45,-0.76 -2.05,-1.36l0 7.28 -6.09 0zm6.05 -13.39l0 0c0,1.21 0.25,2.11 0.78,2.69 0.52,0.58 1.18,0.88 1.98,0.88 0.7,0 1.29,-0.28 1.76,-0.85 0.48,-0.55 0.72,-1.5 0.72,-2.84 0,-1.24 -0.25,-2.14 -0.75,-2.72 -0.49,-0.59 -1.09,-0.88 -1.8,-0.88 -0.77,0 -1.42,0.3 -1.93,0.88 -0.51,0.59 -0.76,1.54 -0.76,2.84z"/>
    <g>
     <path class="fil4" d="M92.81 42.45l0 7.25 -5.48 0 0 -7.41c1.84,0.05 3.66,0.1 5.48,0.16zm-7.75 -0.22l0 0 -1.98 7.47 -4.96 0 -2.02 -7.65c3.01,0.05 6,0.11 8.96,0.18zm-11.17 -0.22l0 0 0 7.69 -5.5 0 0 -7.76c1.84,0.02 3.67,0.04 5.5,0.07zm110.3 8l0 0c-1.17,-0.19 -2.35,-0.37 -3.55,-0.55 0.09,0.04 0.18,0.09 0.28,0.12 0.76,0.31 1.61,0.46 2.54,0.46 0.25,0 0.49,-0.01 0.73,-0.03zm-5.32 -0.81l0 0c-1.98,-0.28 -4.01,-0.56 -6.09,-0.83l0 7.13 6.09 0 0 -6.3zm-10.78 -1.42l0 0c-4.88,-0.6 -10.01,-1.15 -15.35,-1.67 0.07,0.13 0.14,0.24 0.21,0.36 0.79,1.24 1.78,2.15 2.97,2.72 1.2,0.57 2.83,0.85 4.92,0.85 2.4,0 4.24,-0.33 5.52,-0.99 0.62,-0.33 1.19,-0.75 1.73,-1.27zm-22.08 -2.28l0 0c-1.98,-0.17 -3.99,-0.34 -6.03,-0.5l0 4.7 6.03 0 0 -4.2zm-11.7 -0.93l0 0c-1.93,-0.14 -3.87,-0.28 -5.84,-0.41 -0.25,0.6 -0.6,1.07 -1.04,1.39 -0.54,0.39 -1.2,0.58 -1.99,0.58 -0.95,0 -1.73,-0.32 -2.34,-0.97 -0.35,-0.37 -0.59,-0.83 -0.74,-1.38 -2.02,-0.12 -4.06,-0.23 -6.11,-0.34 0.09,0.92 0.3,1.69 0.62,2.32 0.45,0.91 1.07,1.7 1.88,2.38 0.79,0.67 1.75,1.16 2.86,1.46 1.11,0.3 2.5,0.45 4.17,0.45 1.72,0 3.15,-0.23 4.27,-0.7 1.12,-0.47 2.04,-1.12 2.76,-1.97 0.68,-0.8 1.18,-1.74 1.5,-2.81zm-21.02 -1.29l0 0c-1.94,-0.09 -3.91,-0.19 -5.89,-0.28l0 0.39c0,0.73 -0.11,1.32 -0.36,1.78 -0.24,0.45 -0.65,0.84 -1.22,1.15 -0.59,0.32 -1.21,0.48 -1.88,0.48 -0.64,0 -1.13,-0.15 -1.46,-0.44 -0.33,-0.3 -0.5,-0.67 -0.5,-1.13 0,-0.4 0.17,-0.76 0.51,-1.08 0.32,-0.3 1.1,-0.61 2.32,-0.93 0.37,-0.09 0.73,-0.18 1.08,-0.28 -2.86,-0.13 -5.75,-0.24 -8.68,-0.34 -0.07,0.06 -0.15,0.13 -0.21,0.21 -0.71,0.74 -1.05,1.69 -1.05,2.85 0,1.24 0.48,2.28 1.45,3.12 0.98,0.84 2.4,1.26 4.28,1.26 1.41,0 2.64,-0.21 3.71,-0.63 0.78,-0.32 1.57,-0.84 2.36,-1.58 0.07,0.44 0.13,0.76 0.2,0.97 0.07,0.21 0.22,0.5 0.45,0.9l5.65 0c-0.32,-0.64 -0.52,-1.15 -0.61,-1.56 -0.1,-0.41 -0.15,-0.97 -0.15,-1.69l0 -3.17z"/>
    </g>
   </g>
   <g>
    <path class="fil5" d="M16.25 56.77c0,0.01 0,0.02 -0.01,0.03 -0.01,0.02 -0.03,0.02 -0.05,0.03 -0.03,0.01 -0.06,0.01 -0.1,0.02 -0.04,0 -0.09,0 -0.15,0 -0.06,0 -0.11,0 -0.15,0 -0.04,-0.01 -0.08,-0.01 -0.1,-0.02 -0.03,-0.01 -0.04,-0.01 -0.05,-0.03 -0.01,-0.01 -0.02,-0.02 -0.02,-0.03l0 -2.28 -1.15 0 0 2.28c0,0.01 -0.01,0.02 -0.01,0.03 -0.02,0.02 -0.03,0.02 -0.06,0.03 -0.02,0.01 -0.05,0.01 -0.09,0.02 -0.04,0 -0.09,0 -0.15,0 -0.07,0 -0.12,0 -0.16,0 -0.04,-0.01 -0.07,-0.01 -0.09,-0.02 -0.03,-0.01 -0.04,-0.01 -0.05,-0.03 -0.01,-0.01 -0.02,-0.02 -0.02,-0.03l0 -2.58c0,-0.06 0.02,-0.11 0.05,-0.14 0.04,-0.03 0.08,-0.04 0.14,-0.04l2.04 0c0.06,0 0.1,0.01 0.13,0.04 0.03,0.03 0.05,0.08 0.05,0.14l0 2.58zm2.79 -1.9l0 0c0,0.16 -0.02,0.3 -0.08,0.42 -0.05,0.12 -0.13,0.23 -0.24,0.31 -0.1,0.08 -0.23,0.15 -0.38,0.19 -0.15,0.04 -0.33,0.07 -0.53,0.07l-0.26 0 0 0.9c0,0.02 0,0.03 -0.01,0.04 -0.01,0.01 -0.03,0.02 -0.05,0.03 -0.03,0.01 -0.06,0.01 -0.1,0.02 -0.04,0 -0.09,0 -0.15,0 -0.06,0 -0.11,0 -0.15,0 -0.04,-0.01 -0.08,-0.01 -0.1,-0.02 -0.02,-0.01 -0.04,-0.02 -0.05,-0.03 -0.01,-0.01 -0.02,-0.02 -0.02,-0.04l0 -2.55c0,-0.07 0.02,-0.12 0.06,-0.15 0.04,-0.04 0.09,-0.05 0.16,-0.05l0.73 0c0.07,0 0.14,0 0.21,0 0.06,0.01 0.14,0.02 0.23,0.04 0.1,0.01 0.19,0.04 0.28,0.09 0.1,0.04 0.18,0.1 0.25,0.17 0.06,0.07 0.11,0.15 0.15,0.24 0.03,0.1 0.05,0.2 0.05,0.32zm-0.66 0.04l0 0c0,-0.1 -0.01,-0.18 -0.05,-0.25 -0.04,-0.06 -0.09,-0.11 -0.14,-0.14 -0.06,-0.03 -0.12,-0.05 -0.18,-0.06 -0.06,-0.01 -0.12,-0.01 -0.19,-0.01l-0.27 0 0 0.96 0.28 0c0.11,0 0.19,-0.01 0.26,-0.03 0.06,-0.03 0.12,-0.06 0.16,-0.11 0.05,-0.04 0.08,-0.1 0.1,-0.16 0.02,-0.06 0.03,-0.13 0.03,-0.2zm3.93 0.48l0 0c0,0.24 -0.03,0.45 -0.1,0.63 -0.06,0.19 -0.15,0.34 -0.28,0.47 -0.13,0.13 -0.28,0.23 -0.47,0.3 -0.18,0.07 -0.4,0.1 -0.64,0.1 -0.24,0 -0.45,-0.03 -0.63,-0.09 -0.18,-0.05 -0.33,-0.14 -0.45,-0.26 -0.12,-0.12 -0.21,-0.27 -0.27,-0.45 -0.06,-0.18 -0.09,-0.4 -0.09,-0.65 0,-0.23 0.03,-0.44 0.1,-0.62 0.06,-0.18 0.16,-0.34 0.28,-0.47 0.13,-0.12 0.28,-0.22 0.47,-0.29 0.19,-0.07 0.4,-0.1 0.65,-0.1 0.23,0 0.44,0.02 0.62,0.08 0.18,0.06 0.33,0.15 0.45,0.26 0.12,0.12 0.21,0.27 0.27,0.45 0.06,0.18 0.09,0.39 0.09,0.64zm-0.66 0.03l0 0c0,-0.15 -0.01,-0.28 -0.04,-0.41 -0.02,-0.12 -0.07,-0.22 -0.13,-0.31 -0.06,-0.09 -0.14,-0.15 -0.24,-0.2 -0.1,-0.05 -0.23,-0.07 -0.38,-0.07 -0.16,0 -0.29,0.03 -0.39,0.08 -0.11,0.05 -0.19,0.12 -0.25,0.21 -0.07,0.09 -0.11,0.2 -0.14,0.31 -0.02,0.12 -0.04,0.25 -0.04,0.38 0,0.16 0.02,0.3 0.04,0.42 0.03,0.12 0.07,0.23 0.13,0.32 0.06,0.08 0.14,0.15 0.24,0.2 0.11,0.04 0.23,0.07 0.39,0.07 0.15,0 0.28,-0.03 0.39,-0.08 0.1,-0.06 0.18,-0.13 0.25,-0.22 0.06,-0.09 0.11,-0.19 0.13,-0.31 0.03,-0.12 0.04,-0.25 0.04,-0.39zm3.71 1.35l0 0c0,0.01 -0.01,0.02 -0.02,0.03 -0.01,0.02 -0.03,0.02 -0.05,0.03 -0.03,0.01 -0.06,0.01 -0.1,0.02 -0.04,0 -0.09,0 -0.15,0 -0.06,0 -0.11,0 -0.15,0 -0.04,-0.01 -0.07,-0.01 -0.1,-0.02 -0.02,-0.01 -0.04,-0.01 -0.05,-0.03 -0.01,-0.01 -0.01,-0.02 -0.01,-0.03l0 -1.5c0,-0.06 0,-0.11 0,-0.17 0,-0.05 0.01,-0.1 0.01,-0.14l-0.01 0c-0.01,0.02 -0.02,0.04 -0.04,0.07 -0.02,0.03 -0.04,0.06 -0.06,0.09 -0.02,0.03 -0.04,0.06 -0.06,0.09 -0.02,0.03 -0.05,0.06 -0.07,0.09l-1.07 1.47c-0.02,0.01 -0.03,0.03 -0.04,0.04 -0.02,0.01 -0.03,0.02 -0.05,0.03 -0.03,0 -0.05,0.01 -0.08,0.01 -0.04,0 -0.08,0 -0.12,0 -0.07,0 -0.12,0 -0.16,0 -0.03,-0.01 -0.06,-0.01 -0.08,-0.02 -0.03,-0.01 -0.04,-0.01 -0.05,-0.03 -0.01,-0.01 -0.01,-0.02 -0.01,-0.04l0 -2.68c0,-0.01 0,-0.03 0.01,-0.04 0.01,-0.01 0.03,-0.02 0.06,-0.03 0.02,0 0.05,-0.01 0.09,-0.01 0.04,-0.01 0.09,-0.01 0.15,-0.01 0.07,0 0.12,0 0.16,0.01 0.04,0 0.07,0.01 0.09,0.01 0.03,0.01 0.04,0.02 0.05,0.03 0.01,0.01 0.02,0.03 0.02,0.04l0 1.5c0,0.05 0,0.1 0,0.15 -0.01,0.05 -0.01,0.11 -0.01,0.16l0 0c0.03,-0.05 0.06,-0.1 0.11,-0.16 0.04,-0.06 0.08,-0.12 0.12,-0.18l1.08 -1.47c0.01,-0.02 0.02,-0.03 0.04,-0.04 0.01,-0.01 0.03,-0.02 0.05,-0.03 0.02,0 0.05,-0.01 0.08,-0.01 0.03,-0.01 0.07,-0.01 0.12,-0.01 0.06,0 0.11,0 0.15,0.01 0.03,0 0.06,0.01 0.09,0.01 0.02,0.01 0.03,0.02 0.04,0.03 0.01,0.01 0.02,0.03 0.02,0.04l0 2.69zm2.52 -0.75l0 0c0,0.14 -0.03,0.27 -0.08,0.38 -0.06,0.11 -0.15,0.2 -0.26,0.27 -0.11,0.07 -0.24,0.13 -0.39,0.17 -0.15,0.03 -0.32,0.05 -0.5,0.05 -0.11,0 -0.2,-0.01 -0.28,-0.02 -0.09,-0.01 -0.16,-0.03 -0.23,-0.05 -0.06,-0.02 -0.11,-0.04 -0.15,-0.06 -0.04,-0.02 -0.06,-0.03 -0.08,-0.04 -0.02,-0.02 -0.03,-0.03 -0.04,-0.04 0,-0.01 -0.01,-0.03 -0.02,-0.06 0,-0.02 0,-0.05 -0.01,-0.09 0,-0.04 0,-0.08 0,-0.13 0,-0.07 0.01,-0.11 0.02,-0.13 0.01,-0.02 0.03,-0.03 0.05,-0.03 0.02,0 0.05,0.01 0.08,0.03 0.04,0.02 0.08,0.04 0.14,0.06 0.05,0.02 0.12,0.04 0.19,0.06 0.08,0.02 0.17,0.03 0.27,0.03 0.09,0 0.17,-0.01 0.24,-0.03 0.07,-0.02 0.13,-0.04 0.18,-0.08 0.04,-0.03 0.08,-0.07 0.11,-0.12 0.03,-0.05 0.04,-0.11 0.04,-0.17 0,-0.06 -0.01,-0.12 -0.04,-0.17 -0.02,-0.06 -0.06,-0.1 -0.11,-0.14 -0.06,-0.03 -0.12,-0.06 -0.2,-0.08 -0.08,-0.02 -0.18,-0.03 -0.29,-0.03l-0.33 0c-0.02,0 -0.04,0 -0.06,-0.01 -0.01,-0.01 -0.02,-0.02 -0.03,-0.03 -0.01,-0.02 -0.02,-0.04 -0.02,-0.07 0,-0.03 0,-0.07 0,-0.11 0,-0.05 0,-0.08 0,-0.11 0,-0.02 0.01,-0.05 0.02,-0.06 0.01,-0.02 0.02,-0.03 0.03,-0.04 0.02,0 0.03,-0.01 0.05,-0.01l0.33 0c0.1,0 0.19,0 0.26,-0.02 0.08,-0.02 0.14,-0.04 0.19,-0.08 0.05,-0.03 0.09,-0.08 0.11,-0.12 0.03,-0.05 0.04,-0.11 0.04,-0.17 0,-0.05 0,-0.1 -0.02,-0.15 -0.02,-0.04 -0.05,-0.08 -0.09,-0.11 -0.04,-0.03 -0.09,-0.05 -0.14,-0.07 -0.06,-0.01 -0.13,-0.02 -0.21,-0.02 -0.1,0 -0.19,0.01 -0.26,0.03 -0.08,0.01 -0.15,0.04 -0.2,0.06 -0.06,0.02 -0.11,0.04 -0.15,0.06 -0.03,0.02 -0.06,0.03 -0.08,0.03 -0.01,0 -0.02,0 -0.03,-0.01 -0.01,-0.01 -0.02,-0.02 -0.02,-0.03 -0.01,-0.02 -0.01,-0.04 -0.02,-0.06 0,-0.03 0,-0.06 0,-0.11 0,-0.03 0,-0.05 0,-0.08 0,-0.02 0.01,-0.04 0.01,-0.07 0.01,-0.02 0.01,-0.03 0.02,-0.05 0.01,-0.01 0.02,-0.03 0.04,-0.04 0.02,-0.02 0.05,-0.04 0.1,-0.06 0.05,-0.02 0.12,-0.05 0.19,-0.07 0.08,-0.01 0.16,-0.03 0.25,-0.04 0.1,-0.02 0.2,-0.02 0.3,-0.02 0.17,0 0.31,0.01 0.44,0.04 0.12,0.04 0.22,0.08 0.31,0.14 0.08,0.06 0.14,0.14 0.18,0.23 0.04,0.08 0.07,0.19 0.07,0.3 0,0.09 -0.02,0.17 -0.05,0.25 -0.02,0.07 -0.06,0.14 -0.11,0.19 -0.05,0.06 -0.11,0.11 -0.18,0.15 -0.07,0.04 -0.15,0.06 -0.23,0.08l0 0.01c0.1,0.01 0.19,0.03 0.27,0.07 0.08,0.04 0.15,0.09 0.2,0.15 0.06,0.06 0.1,0.13 0.14,0.2 0.03,0.08 0.04,0.16 0.04,0.25zm2.75 -0.03l0 0c0,0.1 -0.02,0.19 -0.05,0.27 -0.03,0.09 -0.07,0.16 -0.12,0.22 -0.06,0.06 -0.12,0.12 -0.19,0.16 -0.08,0.05 -0.16,0.09 -0.25,0.12 -0.09,0.02 -0.18,0.05 -0.29,0.06 -0.1,0.01 -0.21,0.02 -0.33,0.02l-0.82 0c-0.06,0 -0.1,-0.01 -0.14,-0.04 -0.03,-0.03 -0.05,-0.08 -0.05,-0.14l0 -2.47c0,-0.07 0.02,-0.11 0.05,-0.14 0.04,-0.03 0.08,-0.04 0.14,-0.04l0.77 0c0.19,0 0.35,0.01 0.48,0.04 0.13,0.03 0.24,0.07 0.33,0.13 0.1,0.06 0.16,0.14 0.21,0.23 0.05,0.09 0.07,0.19 0.07,0.32 0,0.07 -0.01,0.13 -0.03,0.19 -0.01,0.06 -0.04,0.12 -0.08,0.17 -0.04,0.05 -0.08,0.09 -0.13,0.13 -0.06,0.04 -0.12,0.07 -0.19,0.09 0.09,0.01 0.17,0.04 0.25,0.08 0.07,0.03 0.13,0.08 0.19,0.14 0.05,0.05 0.1,0.12 0.13,0.2 0.03,0.08 0.05,0.16 0.05,0.26zm-0.82 -1.19l0 0c0,-0.06 0,-0.11 -0.02,-0.16 -0.02,-0.04 -0.05,-0.08 -0.09,-0.11 -0.04,-0.03 -0.09,-0.05 -0.14,-0.07 -0.06,-0.01 -0.14,-0.02 -0.24,-0.02l-0.32 0 0 0.73 0.36 0c0.09,0 0.16,-0.01 0.21,-0.03 0.06,-0.02 0.1,-0.04 0.14,-0.08 0.03,-0.03 0.06,-0.07 0.08,-0.12 0.02,-0.04 0.02,-0.09 0.02,-0.14zm0.16 1.21l0 0c0,-0.07 -0.01,-0.12 -0.03,-0.18 -0.02,-0.05 -0.06,-0.09 -0.11,-0.13 -0.04,-0.03 -0.1,-0.06 -0.17,-0.08 -0.07,-0.02 -0.17,-0.03 -0.28,-0.03l-0.38 0 0 0.81 0.46 0c0.09,0 0.16,-0.01 0.22,-0.03 0.06,-0.01 0.11,-0.04 0.16,-0.07 0.04,-0.03 0.07,-0.07 0.1,-0.12 0.02,-0.05 0.03,-0.11 0.03,-0.17zm3.94 -0.62l0 0c0,0.24 -0.03,0.45 -0.09,0.63 -0.07,0.19 -0.16,0.34 -0.29,0.47 -0.12,0.13 -0.28,0.23 -0.46,0.3 -0.19,0.07 -0.4,0.1 -0.65,0.1 -0.24,0 -0.45,-0.03 -0.63,-0.09 -0.18,-0.05 -0.33,-0.14 -0.45,-0.26 -0.12,-0.12 -0.21,-0.27 -0.26,-0.45 -0.06,-0.18 -0.09,-0.4 -0.09,-0.65 0,-0.23 0.03,-0.44 0.09,-0.62 0.07,-0.18 0.16,-0.34 0.29,-0.47 0.12,-0.12 0.28,-0.22 0.46,-0.29 0.19,-0.07 0.4,-0.1 0.65,-0.1 0.23,0 0.44,0.02 0.62,0.08 0.18,0.06 0.33,0.15 0.45,0.26 0.12,0.12 0.21,0.27 0.27,0.45 0.06,0.18 0.09,0.39 0.09,0.64zm-0.66 0.03l0 0c0,-0.15 -0.01,-0.28 -0.03,-0.41 -0.03,-0.12 -0.07,-0.22 -0.13,-0.31 -0.07,-0.09 -0.15,-0.15 -0.25,-0.2 -0.1,-0.05 -0.23,-0.07 -0.38,-0.07 -0.16,0 -0.29,0.03 -0.39,0.08 -0.1,0.05 -0.19,0.12 -0.25,0.21 -0.06,0.09 -0.11,0.2 -0.14,0.31 -0.02,0.12 -0.03,0.25 -0.03,0.38 0,0.16 0.01,0.3 0.03,0.42 0.03,0.12 0.07,0.23 0.13,0.32 0.06,0.08 0.14,0.15 0.25,0.2 0.1,0.04 0.23,0.07 0.38,0.07 0.16,0 0.28,-0.03 0.39,-0.08 0.1,-0.06 0.19,-0.13 0.25,-0.22 0.06,-0.09 0.11,-0.19 0.13,-0.31 0.03,-0.12 0.04,-0.25 0.04,-0.39zm3.91 2.09l0 0c0,0.01 0,0.03 -0.01,0.04 -0.01,0.01 -0.02,0.01 -0.04,0.02 -0.02,0.01 -0.05,0.01 -0.09,0.02 -0.03,0 -0.08,0 -0.13,0 -0.06,0 -0.1,0 -0.13,0 -0.04,-0.01 -0.07,-0.01 -0.09,-0.02 -0.02,-0.01 -0.03,-0.01 -0.04,-0.02 -0.01,-0.01 -0.02,-0.03 -0.02,-0.04l0 -0.67 -2.05 0 0 0.67c0,0.01 -0.01,0.03 -0.02,0.04 -0.01,0.01 -0.02,0.01 -0.04,0.02 -0.02,0.01 -0.05,0.01 -0.09,0.02 -0.03,0 -0.08,0 -0.13,0 -0.05,0 -0.1,0 -0.13,0 -0.04,-0.01 -0.07,-0.01 -0.09,-0.02 -0.02,-0.01 -0.04,-0.01 -0.04,-0.02 -0.01,-0.01 -0.02,-0.03 -0.02,-0.04l0 -1.02c0,-0.04 0.01,-0.07 0.03,-0.09 0.02,-0.02 0.05,-0.03 0.09,-0.03l0.14 0c0.04,-0.05 0.08,-0.1 0.11,-0.15 0.04,-0.05 0.07,-0.12 0.1,-0.19 0.03,-0.07 0.06,-0.16 0.09,-0.26 0.04,-0.1 0.07,-0.22 0.1,-0.36 0.03,-0.15 0.06,-0.32 0.09,-0.52 0.03,-0.2 0.06,-0.43 0.1,-0.7 0.01,-0.06 0.02,-0.11 0.05,-0.14 0.03,-0.03 0.07,-0.04 0.12,-0.04l1.58 0c0.06,0 0.1,0.01 0.14,0.04 0.03,0.03 0.04,0.08 0.04,0.14l0 2.18 0.27 0c0.04,0 0.07,0.01 0.09,0.03 0.01,0.02 0.02,0.05 0.02,0.09l0 1.02zm-1 -3.04l0 0 -0.72 0c-0.03,0.22 -0.06,0.42 -0.09,0.59 -0.03,0.16 -0.05,0.31 -0.08,0.44 -0.03,0.13 -0.06,0.24 -0.09,0.33 -0.03,0.09 -0.05,0.17 -0.08,0.24 -0.03,0.06 -0.06,0.12 -0.1,0.17 -0.03,0.05 -0.06,0.09 -0.09,0.13l1.25 0 0 -1.9zm3.48 1.94l0 0c0,0.04 0,0.07 0,0.09 0,0.03 -0.01,0.05 -0.01,0.07 0,0.02 -0.01,0.03 -0.02,0.05 -0.01,0.01 -0.02,0.03 -0.04,0.04 -0.01,0.02 -0.05,0.04 -0.1,0.07 -0.05,0.02 -0.11,0.05 -0.18,0.07 -0.08,0.03 -0.16,0.05 -0.25,0.06 -0.09,0.02 -0.2,0.03 -0.3,0.03 -0.22,0 -0.41,-0.03 -0.58,-0.09 -0.17,-0.06 -0.31,-0.15 -0.43,-0.27 -0.12,-0.12 -0.21,-0.27 -0.28,-0.45 -0.06,-0.18 -0.09,-0.38 -0.09,-0.62 0,-0.24 0.03,-0.45 0.1,-0.64 0.07,-0.19 0.17,-0.35 0.3,-0.47 0.12,-0.13 0.27,-0.23 0.45,-0.29 0.18,-0.07 0.37,-0.1 0.58,-0.1 0.09,0 0.17,0.01 0.25,0.02 0.08,0.01 0.15,0.03 0.22,0.05 0.07,0.02 0.13,0.05 0.18,0.07 0.06,0.03 0.1,0.06 0.12,0.08 0.02,0.01 0.03,0.03 0.04,0.04 0.01,0.02 0.02,0.03 0.02,0.05 0.01,0.03 0.01,0.05 0.01,0.08 0,0.03 0,0.06 0,0.1 0,0.04 0,0.08 0,0.11 0,0.03 -0.01,0.06 -0.02,0.08 -0.01,0.02 -0.01,0.03 -0.03,0.04 -0.01,0.01 -0.02,0.01 -0.03,0.01 -0.03,0 -0.06,-0.01 -0.09,-0.04 -0.04,-0.02 -0.09,-0.05 -0.15,-0.08 -0.05,-0.03 -0.12,-0.06 -0.2,-0.09 -0.08,-0.02 -0.18,-0.04 -0.29,-0.04 -0.13,0 -0.23,0.03 -0.33,0.07 -0.1,0.05 -0.18,0.11 -0.25,0.2 -0.06,0.09 -0.12,0.19 -0.15,0.31 -0.04,0.12 -0.05,0.26 -0.05,0.41 0,0.17 0.01,0.31 0.05,0.43 0.04,0.12 0.09,0.22 0.16,0.3 0.07,0.08 0.16,0.14 0.25,0.18 0.1,0.04 0.21,0.06 0.33,0.06 0.12,0 0.21,-0.01 0.29,-0.04 0.08,-0.02 0.15,-0.05 0.21,-0.08 0.06,-0.03 0.11,-0.05 0.15,-0.08 0.03,-0.02 0.06,-0.03 0.08,-0.03 0.02,0 0.03,0 0.04,0.01 0.01,0 0.02,0.01 0.03,0.03 0,0.02 0.01,0.04 0.01,0.08 0,0.03 0,0.07 0,0.12zm2.51 -2.17l0 0c0,0.04 0,0.08 0,0.11 -0.01,0.03 -0.01,0.06 -0.02,0.07 -0.01,0.02 -0.02,0.04 -0.03,0.04 -0.01,0.01 -0.03,0.02 -0.04,0.02l-0.77 0 0 2.28c0,0.02 -0.01,0.03 -0.02,0.04 -0.01,0.01 -0.03,0.02 -0.05,0.03 -0.02,0.01 -0.06,0.01 -0.1,0.02 -0.04,0 -0.09,0 -0.15,0 -0.06,0 -0.11,0 -0.15,0 -0.04,-0.01 -0.07,-0.01 -0.1,-0.02 -0.02,-0.01 -0.04,-0.02 -0.05,-0.03 -0.01,-0.01 -0.01,-0.02 -0.01,-0.04l0 -2.28 -0.78 0c-0.01,0 -0.03,-0.01 -0.04,-0.02 -0.01,0 -0.02,-0.02 -0.03,-0.04 -0.01,-0.01 -0.01,-0.04 -0.02,-0.07 0,-0.03 0,-0.07 0,-0.11 0,-0.04 0,-0.08 0,-0.11 0.01,-0.03 0.01,-0.05 0.02,-0.07 0.01,-0.02 0.02,-0.03 0.03,-0.04 0.01,-0.01 0.03,-0.01 0.04,-0.01l2.18 0c0.01,0 0.03,0 0.04,0.01 0.01,0.01 0.02,0.02 0.03,0.04 0.01,0.02 0.01,0.04 0.02,0.07 0,0.03 0,0.07 0,0.11zm2.61 1.75l0 0c0,0.1 -0.02,0.19 -0.05,0.27 -0.03,0.09 -0.07,0.16 -0.12,0.22 -0.06,0.06 -0.12,0.12 -0.19,0.16 -0.08,0.05 -0.16,0.09 -0.25,0.12 -0.09,0.02 -0.18,0.05 -0.28,0.06 -0.1,0.01 -0.22,0.02 -0.34,0.02l-0.82 0c-0.06,0 -0.1,-0.01 -0.14,-0.04 -0.03,-0.03 -0.05,-0.08 -0.05,-0.14l0 -2.47c0,-0.07 0.02,-0.11 0.05,-0.14 0.04,-0.03 0.08,-0.04 0.14,-0.04l0.77 0c0.19,0 0.35,0.01 0.48,0.04 0.14,0.03 0.25,0.07 0.34,0.13 0.09,0.06 0.16,0.14 0.2,0.23 0.05,0.09 0.08,0.19 0.08,0.32 0,0.07 -0.01,0.13 -0.03,0.19 -0.02,0.06 -0.05,0.12 -0.09,0.17 -0.03,0.05 -0.08,0.09 -0.13,0.13 -0.06,0.04 -0.12,0.07 -0.19,0.09 0.09,0.01 0.17,0.04 0.25,0.08 0.07,0.03 0.14,0.08 0.19,0.14 0.06,0.05 0.1,0.12 0.13,0.2 0.03,0.08 0.05,0.16 0.05,0.26zm-0.81 -1.19l0 0c0,-0.06 -0.01,-0.11 -0.03,-0.16 -0.02,-0.04 -0.05,-0.08 -0.09,-0.11 -0.04,-0.03 -0.08,-0.05 -0.14,-0.07 -0.06,-0.01 -0.14,-0.02 -0.24,-0.02l-0.31 0 0 0.73 0.35 0c0.09,0 0.16,-0.01 0.21,-0.03 0.06,-0.02 0.1,-0.04 0.14,-0.08 0.04,-0.03 0.06,-0.07 0.08,-0.12 0.02,-0.04 0.03,-0.09 0.03,-0.14zm0.16 1.21l0 0c0,-0.07 -0.02,-0.12 -0.04,-0.18 -0.02,-0.05 -0.06,-0.09 -0.1,-0.13 -0.05,-0.03 -0.11,-0.06 -0.18,-0.08 -0.07,-0.02 -0.17,-0.03 -0.28,-0.03l-0.37 0 0 0.81 0.45 0c0.09,0 0.16,-0.01 0.22,-0.03 0.06,-0.01 0.11,-0.04 0.16,-0.07 0.04,-0.03 0.07,-0.07 0.1,-0.12 0.02,-0.05 0.04,-0.11 0.04,-0.17zm3.93 -0.62l0 0c0,0.24 -0.03,0.45 -0.09,0.63 -0.06,0.19 -0.16,0.34 -0.29,0.47 -0.12,0.13 -0.28,0.23 -0.46,0.3 -0.19,0.07 -0.4,0.1 -0.65,0.1 -0.24,0 -0.45,-0.03 -0.63,-0.09 -0.18,-0.05 -0.33,-0.14 -0.44,-0.26 -0.12,-0.12 -0.21,-0.27 -0.27,-0.45 -0.06,-0.18 -0.09,-0.4 -0.09,-0.65 0,-0.23 0.03,-0.44 0.09,-0.62 0.07,-0.18 0.16,-0.34 0.29,-0.47 0.12,-0.12 0.28,-0.22 0.46,-0.29 0.19,-0.07 0.41,-0.1 0.65,-0.1 0.24,0 0.44,0.02 0.62,0.08 0.18,0.06 0.33,0.15 0.45,0.26 0.12,0.12 0.21,0.27 0.27,0.45 0.06,0.18 0.09,0.39 0.09,0.64zm-0.65 0.03l0 0c0,-0.15 -0.02,-0.28 -0.04,-0.41 -0.03,-0.12 -0.07,-0.22 -0.13,-0.31 -0.06,-0.09 -0.15,-0.15 -0.25,-0.2 -0.1,-0.05 -0.23,-0.07 -0.38,-0.07 -0.15,0 -0.28,0.03 -0.39,0.08 -0.1,0.05 -0.19,0.12 -0.25,0.21 -0.06,0.09 -0.11,0.2 -0.13,0.31 -0.03,0.12 -0.04,0.25 -0.04,0.38 0,0.16 0.01,0.3 0.03,0.42 0.03,0.12 0.07,0.23 0.13,0.32 0.06,0.08 0.15,0.15 0.25,0.2 0.1,0.04 0.23,0.07 0.38,0.07 0.16,0 0.29,-0.03 0.39,-0.08 0.1,-0.06 0.19,-0.13 0.25,-0.22 0.06,-0.09 0.11,-0.19 0.14,-0.31 0.02,-0.12 0.04,-0.25 0.04,-0.39zm5.14 2.09l0 0c0,0.01 0,0.03 -0.01,0.04 -0.01,0.01 -0.02,0.01 -0.04,0.02 -0.03,0.01 -0.05,0.01 -0.09,0.02 -0.03,0 -0.08,0 -0.14,0 -0.05,0 -0.09,0 -0.13,0 -0.03,-0.01 -0.06,-0.01 -0.08,-0.02 -0.02,-0.01 -0.04,-0.01 -0.05,-0.02 -0.01,-0.01 -0.01,-0.03 -0.01,-0.04l0 -0.67 -2.06 0 0 0.67c0,0.01 0,0.03 -0.01,0.04 -0.01,0.01 -0.02,0.01 -0.05,0.02 -0.02,0.01 -0.05,0.01 -0.08,0.02 -0.04,0 -0.08,0 -0.13,0 -0.06,0 -0.1,0 -0.14,0 -0.03,-0.01 -0.06,-0.01 -0.08,-0.02 -0.02,-0.01 -0.04,-0.01 -0.05,-0.02 -0.01,-0.01 -0.01,-0.03 -0.01,-0.04l0 -1.02c0,-0.04 0.01,-0.07 0.03,-0.09 0.02,-0.02 0.05,-0.03 0.09,-0.03l0.14 0c0.04,-0.05 0.07,-0.1 0.11,-0.15 0.03,-0.05 0.06,-0.12 0.1,-0.19 0.03,-0.07 0.06,-0.16 0.09,-0.26 0.03,-0.1 0.06,-0.22 0.09,-0.36 0.03,-0.15 0.06,-0.32 0.1,-0.52 0.03,-0.2 0.06,-0.43 0.09,-0.7 0.01,-0.06 0.03,-0.11 0.06,-0.14 0.02,-0.03 0.07,-0.04 0.12,-0.04l1.58 0c0.06,0 0.1,0.01 0.13,0.04 0.03,0.03 0.05,0.08 0.05,0.14l0 2.18 0.26 0c0.05,0 0.08,0.01 0.09,0.03 0.02,0.02 0.03,0.05 0.03,0.09l0 1.02zm-1.01 -3.04l0 0 -0.72 0c-0.03,0.22 -0.05,0.42 -0.08,0.59 -0.03,0.16 -0.06,0.31 -0.09,0.44 -0.02,0.13 -0.05,0.24 -0.08,0.33 -0.03,0.09 -0.06,0.17 -0.09,0.24 -0.03,0.06 -0.06,0.12 -0.09,0.17 -0.03,0.05 -0.06,0.09 -0.1,0.13l1.25 0 0 -1.9z"/>
    <path class="fil5" d="M54.8 56.61c0,0.05 0,0.08 0,0.11 0,0.03 -0.01,0.05 -0.02,0.07 -0.01,0.02 -0.02,0.03 -0.03,0.04 -0.01,0.01 -0.02,0.01 -0.04,0.01l-1.55 0c-0.05,0 -0.1,-0.01 -0.13,-0.04 -0.04,-0.03 -0.06,-0.08 -0.06,-0.14l0 -2.47c0,-0.07 0.02,-0.11 0.06,-0.14 0.03,-0.03 0.08,-0.04 0.13,-0.04l1.54 0c0.02,0 0.03,0 0.04,0.01 0.01,0 0.02,0.02 0.03,0.04 0.01,0.01 0.01,0.04 0.02,0.07 0,0.02 0,0.06 0,0.1 0,0.04 0,0.08 0,0.11 -0.01,0.03 -0.01,0.05 -0.02,0.07 -0.01,0.01 -0.02,0.03 -0.03,0.03 -0.01,0.01 -0.02,0.02 -0.04,0.02l-1.1 0 0 0.69 0.93 0c0.02,0 0.03,0 0.04,0.01 0.01,0.01 0.02,0.02 0.03,0.04 0.01,0.02 0.02,0.04 0.02,0.07 0,0.02 0.01,0.06 0.01,0.1 0,0.04 -0.01,0.08 -0.01,0.11 0,0.02 -0.01,0.05 -0.02,0.06 -0.01,0.02 -0.02,0.03 -0.03,0.04 -0.01,0.01 -0.02,0.01 -0.04,0.01l-0.93 0 0 0.8 1.11 0c0.02,0 0.03,0 0.04,0.01 0.01,0.01 0.02,0.02 0.03,0.04 0.01,0.02 0.02,0.04 0.02,0.07 0,0.03 0,0.06 0,0.1zm2.6 -2.37l0 0c0,0.04 0,0.08 -0.01,0.11 0,0.03 -0.01,0.06 -0.01,0.07 -0.01,0.02 -0.02,0.04 -0.03,0.04 -0.02,0.01 -0.03,0.02 -0.04,0.02l-0.78 0 0 2.28c0,0.02 0,0.03 -0.01,0.04 -0.01,0.01 -0.03,0.02 -0.05,0.03 -0.03,0.01 -0.06,0.01 -0.1,0.02 -0.04,0 -0.09,0 -0.15,0 -0.06,0 -0.11,0 -0.15,0 -0.04,-0.01 -0.08,-0.01 -0.1,-0.02 -0.03,-0.01 -0.04,-0.02 -0.05,-0.03 -0.01,-0.01 -0.02,-0.02 -0.02,-0.04l0 -2.28 -0.77 0c-0.02,0 -0.03,-0.01 -0.04,-0.02 -0.01,0 -0.02,-0.02 -0.03,-0.04 -0.01,-0.01 -0.02,-0.04 -0.02,-0.07 0,-0.03 -0.01,-0.07 -0.01,-0.11 0,-0.04 0.01,-0.08 0.01,-0.11 0,-0.03 0.01,-0.05 0.02,-0.07 0.01,-0.02 0.02,-0.03 0.03,-0.04 0.01,-0.01 0.02,-0.01 0.04,-0.01l2.18 0c0.01,0 0.02,0 0.04,0.01 0.01,0.01 0.02,0.02 0.03,0.04 0,0.02 0.01,0.04 0.01,0.07 0.01,0.03 0.01,0.07 0.01,0.11zm2.38 2.17l0 0c0,0.04 0,0.07 0,0.09 -0.01,0.03 -0.01,0.05 -0.01,0.07 -0.01,0.02 -0.01,0.03 -0.02,0.05 -0.01,0.01 -0.02,0.03 -0.04,0.04 -0.02,0.02 -0.05,0.04 -0.1,0.07 -0.05,0.02 -0.11,0.05 -0.19,0.07 -0.07,0.03 -0.15,0.05 -0.25,0.06 -0.09,0.02 -0.19,0.03 -0.3,0.03 -0.21,0 -0.4,-0.03 -0.57,-0.09 -0.17,-0.06 -0.32,-0.15 -0.44,-0.27 -0.12,-0.12 -0.21,-0.27 -0.27,-0.45 -0.06,-0.18 -0.1,-0.38 -0.1,-0.62 0,-0.24 0.04,-0.45 0.11,-0.64 0.07,-0.19 0.17,-0.35 0.29,-0.47 0.13,-0.13 0.28,-0.23 0.46,-0.29 0.17,-0.07 0.37,-0.1 0.58,-0.1 0.08,0 0.17,0.01 0.25,0.02 0.08,0.01 0.15,0.03 0.22,0.05 0.06,0.02 0.13,0.05 0.18,0.07 0.05,0.03 0.09,0.06 0.11,0.08 0.03,0.01 0.04,0.03 0.05,0.04 0.01,0.02 0.01,0.03 0.02,0.05 0,0.03 0.01,0.05 0.01,0.08 0,0.03 0,0.06 0,0.1 0,0.04 0,0.08 0,0.11 -0.01,0.03 -0.01,0.06 -0.02,0.08 -0.01,0.02 -0.02,0.03 -0.03,0.04 -0.01,0.01 -0.02,0.01 -0.04,0.01 -0.02,0 -0.05,-0.01 -0.09,-0.04 -0.03,-0.02 -0.08,-0.05 -0.14,-0.08 -0.06,-0.03 -0.13,-0.06 -0.21,-0.09 -0.08,-0.02 -0.17,-0.04 -0.29,-0.04 -0.12,0 -0.23,0.03 -0.32,0.07 -0.1,0.05 -0.18,0.11 -0.25,0.2 -0.07,0.09 -0.12,0.19 -0.15,0.31 -0.04,0.12 -0.06,0.26 -0.06,0.41 0,0.17 0.02,0.31 0.06,0.43 0.04,0.12 0.09,0.22 0.16,0.3 0.07,0.08 0.15,0.14 0.25,0.18 0.1,0.04 0.21,0.06 0.33,0.06 0.11,0 0.21,-0.01 0.29,-0.04 0.08,-0.02 0.15,-0.05 0.21,-0.08 0.06,-0.03 0.11,-0.05 0.14,-0.08 0.04,-0.02 0.07,-0.03 0.09,-0.03 0.02,0 0.03,0 0.04,0.01 0.01,0 0.02,0.01 0.02,0.03 0.01,0.02 0.01,0.04 0.02,0.08 0,0.03 0,0.07 0,0.12zm2.74 0.35l0 0c0,0.02 0,0.03 -0.01,0.04 -0.01,0.02 -0.03,0.02 -0.05,0.03 -0.03,0.01 -0.06,0.01 -0.1,0.02 -0.04,0 -0.1,0 -0.16,0 -0.07,0 -0.13,0 -0.17,0 -0.04,-0.01 -0.08,-0.01 -0.1,-0.02 -0.03,-0.01 -0.05,-0.02 -0.06,-0.03 -0.01,-0.02 -0.02,-0.03 -0.03,-0.05l-0.25 -0.63c-0.03,-0.1 -0.07,-0.17 -0.11,-0.24 -0.03,-0.06 -0.08,-0.11 -0.12,-0.15 -0.05,-0.04 -0.1,-0.06 -0.16,-0.08 -0.06,-0.01 -0.12,-0.02 -0.2,-0.02l-0.14 0 0 1.13c0,0.02 0,0.03 -0.01,0.04 -0.01,0.01 -0.03,0.02 -0.05,0.03 -0.03,0.01 -0.06,0.01 -0.1,0.02 -0.04,0 -0.09,0 -0.15,0 -0.06,0 -0.11,0 -0.15,0 -0.04,-0.01 -0.08,-0.01 -0.1,-0.02 -0.02,-0.01 -0.04,-0.02 -0.05,-0.03 -0.01,-0.01 -0.02,-0.02 -0.02,-0.04l0 -2.68c0,-0.01 0.01,-0.03 0.02,-0.04 0.01,-0.01 0.03,-0.02 0.05,-0.03 0.02,0 0.06,-0.01 0.1,-0.01 0.04,-0.01 0.09,-0.01 0.15,-0.01 0.06,0 0.11,0 0.15,0.01 0.04,0 0.07,0.01 0.1,0.01 0.02,0.01 0.04,0.02 0.05,0.03 0.01,0.01 0.01,0.03 0.01,0.04l0 1.07 0.14 0c0.07,0 0.14,-0.01 0.19,-0.03 0.05,-0.02 0.1,-0.04 0.15,-0.08 0.04,-0.04 0.08,-0.09 0.12,-0.15 0.03,-0.06 0.07,-0.14 0.1,-0.22l0.21 -0.57c0.01,-0.02 0.02,-0.04 0.03,-0.05 0.01,-0.02 0.03,-0.03 0.05,-0.03 0.03,-0.01 0.06,-0.02 0.1,-0.02 0.04,-0.01 0.09,-0.01 0.16,-0.01 0.07,0 0.12,0 0.16,0.01 0.04,0 0.07,0.01 0.09,0.01 0.03,0.01 0.04,0.02 0.05,0.03 0.01,0.01 0.01,0.02 0.01,0.04 0,0.02 0,0.04 -0.01,0.07 -0.01,0.03 -0.02,0.06 -0.04,0.11l-0.2 0.5c-0.04,0.1 -0.08,0.18 -0.12,0.24 -0.04,0.07 -0.08,0.12 -0.12,0.17 -0.04,0.05 -0.09,0.08 -0.13,0.11 -0.05,0.03 -0.1,0.06 -0.16,0.08l0 0c0.06,0.02 0.12,0.05 0.17,0.08 0.06,0.03 0.1,0.07 0.15,0.12 0.04,0.05 0.09,0.11 0.13,0.18 0.04,0.07 0.08,0.15 0.13,0.26l0.25 0.58c0.03,0.06 0.04,0.11 0.04,0.13 0.01,0.02 0.01,0.04 0.01,0.05zm3.13 -1.37l0 0c0,0.24 -0.04,0.45 -0.1,0.63 -0.06,0.19 -0.16,0.34 -0.28,0.47 -0.13,0.13 -0.29,0.23 -0.47,0.3 -0.19,0.07 -0.4,0.1 -0.65,0.1 -0.24,0 -0.45,-0.03 -0.63,-0.09 -0.17,-0.05 -0.32,-0.14 -0.44,-0.26 -0.12,-0.12 -0.21,-0.27 -0.27,-0.45 -0.06,-0.18 -0.09,-0.4 -0.09,-0.65 0,-0.23 0.03,-0.44 0.09,-0.62 0.07,-0.18 0.16,-0.34 0.29,-0.47 0.12,-0.12 0.28,-0.22 0.47,-0.29 0.18,-0.07 0.4,-0.1 0.64,-0.1 0.24,0 0.44,0.02 0.62,0.08 0.18,0.06 0.33,0.15 0.45,0.26 0.12,0.12 0.21,0.27 0.27,0.45 0.07,0.18 0.1,0.39 0.1,0.64zm-0.66 0.03l0 0c0,-0.15 -0.02,-0.28 -0.04,-0.41 -0.03,-0.12 -0.07,-0.22 -0.13,-0.31 -0.06,-0.09 -0.15,-0.15 -0.25,-0.2 -0.1,-0.05 -0.23,-0.07 -0.38,-0.07 -0.15,0 -0.28,0.03 -0.39,0.08 -0.1,0.05 -0.18,0.12 -0.25,0.21 -0.06,0.09 -0.11,0.2 -0.13,0.31 -0.03,0.12 -0.04,0.25 -0.04,0.38 0,0.16 0.01,0.3 0.04,0.42 0.02,0.12 0.06,0.23 0.12,0.32 0.07,0.08 0.15,0.15 0.25,0.2 0.1,0.04 0.23,0.07 0.38,0.07 0.16,0 0.29,-0.03 0.39,-0.08 0.1,-0.06 0.19,-0.13 0.25,-0.22 0.07,-0.09 0.11,-0.19 0.14,-0.31 0.02,-0.12 0.04,-0.25 0.04,-0.39zm2.94 -1.18l0 0c0,0.05 -0.01,0.09 -0.01,0.12 0,0.02 -0.01,0.05 -0.02,0.07 -0.01,0.02 -0.02,0.03 -0.03,0.04 -0.01,0 -0.02,0.01 -0.04,0.01l-1.02 0 0 2.29c0,0.01 -0.01,0.02 -0.02,0.03 -0.01,0.02 -0.03,0.02 -0.05,0.03 -0.03,0.01 -0.06,0.01 -0.1,0.02 -0.04,0 -0.09,0 -0.15,0 -0.06,0 -0.11,0 -0.15,0 -0.04,-0.01 -0.08,-0.01 -0.1,-0.02 -0.02,-0.01 -0.04,-0.01 -0.05,-0.03 -0.01,-0.01 -0.02,-0.02 -0.02,-0.03l0 -2.58c0,-0.06 0.02,-0.11 0.06,-0.14 0.03,-0.03 0.07,-0.04 0.13,-0.04l1.47 0c0.03,0 0.06,0.01 0.07,0.05 0.02,0.04 0.03,0.1 0.03,0.18zm3 1.15l0 0c0,0.24 -0.03,0.45 -0.09,0.63 -0.07,0.19 -0.16,0.34 -0.29,0.47 -0.12,0.13 -0.28,0.23 -0.46,0.3 -0.19,0.07 -0.41,0.1 -0.65,0.1 -0.24,0 -0.45,-0.03 -0.63,-0.09 -0.18,-0.05 -0.33,-0.14 -0.45,-0.26 -0.12,-0.12 -0.21,-0.27 -0.27,-0.45 -0.06,-0.18 -0.09,-0.4 -0.09,-0.65 0,-0.23 0.04,-0.44 0.1,-0.62 0.06,-0.18 0.16,-0.34 0.28,-0.47 0.13,-0.12 0.29,-0.22 0.47,-0.29 0.19,-0.07 0.4,-0.1 0.65,-0.1 0.23,0 0.44,0.02 0.62,0.08 0.18,0.06 0.33,0.15 0.45,0.26 0.12,0.12 0.21,0.27 0.27,0.45 0.06,0.18 0.09,0.39 0.09,0.64zm-0.66 0.03l0 0c0,-0.15 -0.01,-0.28 -0.04,-0.41 -0.02,-0.12 -0.06,-0.22 -0.13,-0.31 -0.06,-0.09 -0.14,-0.15 -0.24,-0.2 -0.1,-0.05 -0.23,-0.07 -0.38,-0.07 -0.16,0 -0.29,0.03 -0.39,0.08 -0.1,0.05 -0.19,0.12 -0.25,0.21 -0.06,0.09 -0.11,0.2 -0.14,0.31 -0.02,0.12 -0.04,0.25 -0.04,0.38 0,0.16 0.02,0.3 0.04,0.42 0.03,0.12 0.07,0.23 0.13,0.32 0.06,0.08 0.14,0.15 0.25,0.2 0.1,0.04 0.23,0.07 0.38,0.07 0.15,0 0.28,-0.03 0.39,-0.08 0.1,-0.06 0.18,-0.13 0.25,-0.22 0.06,-0.09 0.11,-0.19 0.13,-0.31 0.03,-0.12 0.04,-0.25 0.04,-0.39zm4.81 1.35l0 0c0,0.01 0,0.02 -0.01,0.03 -0.01,0.02 -0.03,0.02 -0.05,0.03 -0.03,0.01 -0.06,0.01 -0.1,0.02 -0.04,0 -0.09,0 -0.15,0 -0.06,0 -0.11,0 -0.15,0 -0.05,-0.01 -0.08,-0.01 -0.1,-0.02 -0.02,-0.01 -0.04,-0.01 -0.05,-0.03 -0.01,-0.01 -0.01,-0.02 -0.01,-0.03l0 -1.5c0,-0.06 0,-0.11 0,-0.17 0,-0.05 0,-0.1 0.01,-0.14l-0.01 0c-0.01,0.02 -0.03,0.04 -0.04,0.07 -0.02,0.03 -0.04,0.06 -0.06,0.09 -0.02,0.03 -0.04,0.06 -0.06,0.09 -0.03,0.03 -0.05,0.06 -0.07,0.09l-1.08 1.47c-0.01,0.01 -0.02,0.03 -0.04,0.04 -0.01,0.01 -0.03,0.02 -0.05,0.03 -0.02,0 -0.05,0.01 -0.08,0.01 -0.03,0 -0.07,0 -0.12,0 -0.06,0 -0.11,0 -0.15,0 -0.04,-0.01 -0.07,-0.01 -0.09,-0.02 -0.02,-0.01 -0.03,-0.01 -0.04,-0.03 -0.01,-0.01 -0.01,-0.02 -0.01,-0.04l0 -2.68c0,-0.01 0,-0.03 0.01,-0.04 0.01,-0.01 0.03,-0.02 0.06,-0.03 0.02,0 0.05,-0.01 0.09,-0.01 0.04,-0.01 0.09,-0.01 0.15,-0.01 0.06,0 0.11,0 0.15,0.01 0.04,0 0.08,0.01 0.1,0.01 0.02,0.01 0.04,0.02 0.05,0.03 0.01,0.01 0.02,0.03 0.02,0.04l0 1.5c0,0.05 -0.01,0.1 -0.01,0.15 0,0.05 0,0.11 0,0.16l0 0c0.03,-0.05 0.06,-0.1 0.1,-0.16 0.05,-0.06 0.09,-0.12 0.13,-0.18l1.08 -1.47c0.01,-0.02 0.02,-0.03 0.03,-0.04 0.02,-0.01 0.03,-0.02 0.05,-0.03 0.03,0 0.05,-0.01 0.08,-0.01 0.04,-0.01 0.08,-0.01 0.13,-0.01 0.06,0 0.11,0 0.14,0.01 0.04,0 0.07,0.01 0.09,0.01 0.03,0.01 0.04,0.02 0.05,0.03 0.01,0.01 0.01,0.03 0.01,0.04l0 2.69zm2.43 -2.53l0 0c0,0.05 0,0.09 -0.01,0.12 0,0.02 -0.01,0.05 -0.02,0.07 0,0.02 -0.01,0.03 -0.02,0.04 -0.02,0 -0.03,0.01 -0.05,0.01l-1.02 0 0 2.29c0,0.01 -0.01,0.02 -0.02,0.03 -0.01,0.02 -0.02,0.02 -0.05,0.03 -0.02,0.01 -0.05,0.01 -0.09,0.02 -0.04,0 -0.1,0 -0.16,0 -0.06,0 -0.11,0 -0.15,0 -0.04,-0.01 -0.07,-0.01 -0.1,-0.02 -0.02,-0.01 -0.04,-0.01 -0.05,-0.03 -0.01,-0.01 -0.01,-0.02 -0.01,-0.03l0 -2.58c0,-0.06 0.01,-0.11 0.05,-0.14 0.03,-0.03 0.08,-0.04 0.13,-0.04l1.47 0c0.03,0 0.06,0.01 0.07,0.05 0.02,0.04 0.03,0.1 0.03,0.18zm2.48 0.63l0 0c0,0.16 -0.03,0.3 -0.08,0.42 -0.06,0.12 -0.13,0.23 -0.24,0.31 -0.1,0.08 -0.23,0.15 -0.38,0.19 -0.15,0.04 -0.33,0.07 -0.53,0.07l-0.26 0 0 0.9c0,0.02 0,0.03 -0.01,0.04 -0.02,0.01 -0.03,0.02 -0.06,0.03 -0.02,0.01 -0.05,0.01 -0.09,0.02 -0.04,0 -0.09,0 -0.15,0 -0.07,0 -0.12,0 -0.16,0 -0.04,-0.01 -0.07,-0.01 -0.09,-0.02 -0.03,-0.01 -0.04,-0.02 -0.05,-0.03 -0.01,-0.01 -0.02,-0.02 -0.02,-0.04l0 -2.55c0,-0.07 0.02,-0.12 0.06,-0.15 0.04,-0.04 0.09,-0.05 0.15,-0.05l0.73 0c0.08,0 0.15,0 0.21,0 0.07,0.01 0.15,0.02 0.24,0.04 0.09,0.01 0.19,0.04 0.28,0.09 0.1,0.04 0.18,0.1 0.24,0.17 0.07,0.07 0.12,0.15 0.16,0.24 0.03,0.1 0.05,0.2 0.05,0.32zm-0.66 0.04l0 0c0,-0.1 -0.02,-0.18 -0.05,-0.25 -0.04,-0.06 -0.09,-0.11 -0.15,-0.14 -0.05,-0.03 -0.11,-0.05 -0.17,-0.06 -0.06,-0.01 -0.13,-0.01 -0.19,-0.01l-0.27 0 0 0.96 0.28 0c0.1,0 0.19,-0.01 0.25,-0.03 0.07,-0.03 0.13,-0.06 0.17,-0.11 0.04,-0.04 0.08,-0.1 0.1,-0.16 0.02,-0.06 0.03,-0.13 0.03,-0.2zm3.93 0.48l0 0c0,0.24 -0.03,0.45 -0.1,0.63 -0.06,0.19 -0.16,0.34 -0.28,0.47 -0.13,0.13 -0.28,0.23 -0.47,0.3 -0.18,0.07 -0.4,0.1 -0.64,0.1 -0.24,0 -0.45,-0.03 -0.63,-0.09 -0.18,-0.05 -0.33,-0.14 -0.45,-0.26 -0.12,-0.12 -0.21,-0.27 -0.27,-0.45 -0.06,-0.18 -0.09,-0.4 -0.09,-0.65 0,-0.23 0.03,-0.44 0.1,-0.62 0.06,-0.18 0.15,-0.34 0.28,-0.47 0.13,-0.12 0.28,-0.22 0.47,-0.29 0.18,-0.07 0.4,-0.1 0.64,-0.1 0.24,0 0.45,0.02 0.62,0.08 0.18,0.06 0.33,0.15 0.45,0.26 0.12,0.12 0.21,0.27 0.28,0.45 0.06,0.18 0.09,0.39 0.09,0.64zm-0.66 0.03l0 0c0,-0.15 -0.01,-0.28 -0.04,-0.41 -0.02,-0.12 -0.07,-0.22 -0.13,-0.31 -0.06,-0.09 -0.14,-0.15 -0.24,-0.2 -0.11,-0.05 -0.23,-0.07 -0.39,-0.07 -0.15,0 -0.28,0.03 -0.38,0.08 -0.11,0.05 -0.19,0.12 -0.26,0.21 -0.06,0.09 -0.1,0.2 -0.13,0.31 -0.03,0.12 -0.04,0.25 -0.04,0.38 0,0.16 0.01,0.3 0.04,0.42 0.02,0.12 0.07,0.23 0.13,0.32 0.06,0.08 0.14,0.15 0.24,0.2 0.1,0.04 0.23,0.07 0.39,0.07 0.15,0 0.28,-0.03 0.38,-0.08 0.11,-0.06 0.19,-0.13 0.25,-0.22 0.07,-0.09 0.11,-0.19 0.14,-0.31 0.03,-0.12 0.04,-0.25 0.04,-0.39zm3.43 0.57l0 0c0,0.1 -0.02,0.19 -0.05,0.27 -0.03,0.09 -0.07,0.16 -0.12,0.22 -0.06,0.06 -0.12,0.12 -0.2,0.16 -0.07,0.05 -0.15,0.09 -0.24,0.12 -0.09,0.02 -0.19,0.05 -0.29,0.06 -0.1,0.01 -0.21,0.02 -0.34,0.02l-0.82 0c-0.05,0 -0.09,-0.01 -0.13,-0.04 -0.04,-0.03 -0.05,-0.08 -0.05,-0.14l0 -2.47c0,-0.07 0.01,-0.11 0.05,-0.14 0.04,-0.03 0.08,-0.04 0.13,-0.04l0.78 0c0.19,0 0.35,0.01 0.48,0.04 0.13,0.03 0.24,0.07 0.33,0.13 0.09,0.06 0.16,0.14 0.21,0.23 0.05,0.09 0.07,0.19 0.07,0.32 0,0.07 -0.01,0.13 -0.03,0.19 -0.02,0.06 -0.04,0.12 -0.08,0.17 -0.04,0.05 -0.08,0.09 -0.14,0.13 -0.05,0.04 -0.11,0.07 -0.18,0.09 0.09,0.01 0.17,0.04 0.24,0.08 0.08,0.03 0.14,0.08 0.2,0.14 0.05,0.05 0.1,0.12 0.13,0.2 0.03,0.08 0.05,0.16 0.05,0.26zm-0.82 -1.19l0 0c0,-0.06 -0.01,-0.11 -0.03,-0.16 -0.01,-0.04 -0.04,-0.08 -0.08,-0.11 -0.04,-0.03 -0.09,-0.05 -0.15,-0.07 -0.05,-0.01 -0.13,-0.02 -0.23,-0.02l-0.32 0 0 0.73 0.35 0c0.1,0 0.17,-0.01 0.22,-0.03 0.06,-0.02 0.1,-0.04 0.14,-0.08 0.03,-0.03 0.06,-0.07 0.08,-0.12 0.01,-0.04 0.02,-0.09 0.02,-0.14zm0.16 1.21l0 0c0,-0.07 -0.01,-0.12 -0.03,-0.18 -0.03,-0.05 -0.06,-0.09 -0.11,-0.13 -0.04,-0.03 -0.1,-0.06 -0.17,-0.08 -0.08,-0.02 -0.17,-0.03 -0.28,-0.03l-0.38 0 0 0.81 0.46 0c0.08,0 0.16,-0.01 0.22,-0.03 0.06,-0.01 0.11,-0.04 0.15,-0.07 0.05,-0.03 0.08,-0.07 0.11,-0.12 0.02,-0.05 0.03,-0.11 0.03,-0.17zm3.94 -0.62l0 0c0,0.24 -0.03,0.45 -0.09,0.63 -0.07,0.19 -0.16,0.34 -0.29,0.47 -0.12,0.13 -0.28,0.23 -0.47,0.3 -0.18,0.07 -0.4,0.1 -0.64,0.1 -0.24,0 -0.45,-0.03 -0.63,-0.09 -0.18,-0.05 -0.33,-0.14 -0.45,-0.26 -0.12,-0.12 -0.21,-0.27 -0.27,-0.45 -0.06,-0.18 -0.09,-0.4 -0.09,-0.65 0,-0.23 0.04,-0.44 0.1,-0.62 0.06,-0.18 0.16,-0.34 0.28,-0.47 0.13,-0.12 0.29,-0.22 0.47,-0.29 0.19,-0.07 0.4,-0.1 0.65,-0.1 0.23,0 0.44,0.02 0.62,0.08 0.18,0.06 0.33,0.15 0.45,0.26 0.12,0.12 0.21,0.27 0.27,0.45 0.06,0.18 0.09,0.39 0.09,0.64zm-0.66 0.03l0 0c0,-0.15 -0.01,-0.28 -0.04,-0.41 -0.02,-0.12 -0.07,-0.22 -0.13,-0.31 -0.06,-0.09 -0.14,-0.15 -0.24,-0.2 -0.1,-0.05 -0.23,-0.07 -0.38,-0.07 -0.16,0 -0.29,0.03 -0.39,0.08 -0.1,0.05 -0.19,0.12 -0.25,0.21 -0.07,0.09 -0.11,0.2 -0.14,0.31 -0.02,0.12 -0.04,0.25 -0.04,0.38 0,0.16 0.02,0.3 0.04,0.42 0.03,0.12 0.07,0.23 0.13,0.32 0.06,0.08 0.14,0.15 0.24,0.2 0.11,0.04 0.23,0.07 0.39,0.07 0.15,0 0.28,-0.03 0.39,-0.08 0.1,-0.06 0.18,-0.13 0.25,-0.22 0.06,-0.09 0.11,-0.19 0.13,-0.31 0.03,-0.12 0.04,-0.25 0.04,-0.39zm2.94 -1.18l0 0c0,0.05 0,0.09 0,0.12 -0.01,0.02 -0.01,0.05 -0.02,0.07 -0.01,0.02 -0.02,0.03 -0.03,0.04 -0.01,0 -0.03,0.01 -0.04,0.01l-1.03 0 0 2.29c0,0.01 0,0.02 -0.01,0.03 -0.01,0.02 -0.03,0.02 -0.06,0.03 -0.02,0.01 -0.05,0.01 -0.09,0.02 -0.04,0 -0.09,0 -0.15,0 -0.06,0 -0.12,0 -0.16,0 -0.04,-0.01 -0.07,-0.01 -0.09,-0.02 -0.03,-0.01 -0.04,-0.01 -0.05,-0.03 -0.02,-0.01 -0.02,-0.02 -0.02,-0.03l0 -2.58c0,-0.06 0.02,-0.11 0.05,-0.14 0.04,-0.03 0.08,-0.04 0.14,-0.04l1.47 0c0.03,0 0.05,0.01 0.07,0.05 0.01,0.04 0.02,0.1 0.02,0.18zm3.01 1.15l0 0c0,0.24 -0.03,0.45 -0.1,0.63 -0.06,0.19 -0.16,0.34 -0.28,0.47 -0.13,0.13 -0.28,0.23 -0.47,0.3 -0.18,0.07 -0.4,0.1 -0.64,0.1 -0.24,0 -0.45,-0.03 -0.63,-0.09 -0.18,-0.05 -0.33,-0.14 -0.45,-0.26 -0.12,-0.12 -0.21,-0.27 -0.27,-0.45 -0.06,-0.18 -0.09,-0.4 -0.09,-0.65 0,-0.23 0.03,-0.44 0.1,-0.62 0.06,-0.18 0.15,-0.34 0.28,-0.47 0.13,-0.12 0.28,-0.22 0.47,-0.29 0.18,-0.07 0.4,-0.1 0.64,-0.1 0.24,0 0.45,0.02 0.62,0.08 0.18,0.06 0.33,0.15 0.45,0.26 0.12,0.12 0.21,0.27 0.28,0.45 0.06,0.18 0.09,0.39 0.09,0.64zm-0.66 0.03l0 0c0,-0.15 -0.01,-0.28 -0.04,-0.41 -0.02,-0.12 -0.07,-0.22 -0.13,-0.31 -0.06,-0.09 -0.14,-0.15 -0.24,-0.2 -0.11,-0.05 -0.23,-0.07 -0.39,-0.07 -0.15,0 -0.28,0.03 -0.38,0.08 -0.11,0.05 -0.19,0.12 -0.26,0.21 -0.06,0.09 -0.1,0.2 -0.13,0.31 -0.03,0.12 -0.04,0.25 -0.04,0.38 0,0.16 0.01,0.3 0.04,0.42 0.02,0.12 0.07,0.23 0.13,0.32 0.06,0.08 0.14,0.15 0.24,0.2 0.1,0.04 0.23,0.07 0.39,0.07 0.15,0 0.28,-0.03 0.38,-0.08 0.11,-0.06 0.19,-0.13 0.25,-0.22 0.07,-0.09 0.11,-0.19 0.14,-0.31 0.03,-0.12 0.04,-0.25 0.04,-0.39z"/>
    <path class="fil5" d="M98.75 56.77c0,0.01 -0.01,0.02 -0.02,0.03 -0.01,0.02 -0.02,0.02 -0.05,0.03 -0.02,0.01 -0.05,0.01 -0.09,0.02 -0.05,0 -0.1,0 -0.16,0 -0.06,0 -0.11,0 -0.15,0 -0.04,-0.01 -0.07,-0.01 -0.09,-0.02 -0.03,-0.01 -0.04,-0.01 -0.05,-0.03 -0.01,-0.01 -0.02,-0.02 -0.02,-0.03l0 -1.5c0,-0.06 0,-0.11 0,-0.17 0.01,-0.05 0.01,-0.1 0.01,-0.14l0 0c-0.01,0.02 -0.03,0.04 -0.05,0.07 -0.02,0.03 -0.03,0.06 -0.05,0.09 -0.02,0.03 -0.04,0.06 -0.07,0.09 -0.02,0.03 -0.04,0.06 -0.06,0.09l-1.08 1.47c-0.01,0.01 -0.03,0.03 -0.04,0.04 -0.01,0.01 -0.03,0.02 -0.05,0.03 -0.02,0 -0.05,0.01 -0.08,0.01 -0.03,0 -0.07,0 -0.12,0 -0.06,0 -0.11,0 -0.15,0 -0.04,-0.01 -0.07,-0.01 -0.09,-0.02 -0.02,-0.01 -0.04,-0.01 -0.05,-0.03 0,-0.01 -0.01,-0.02 -0.01,-0.04l0 -2.68c0,-0.01 0.01,-0.03 0.02,-0.04 0.01,-0.01 0.03,-0.02 0.05,-0.03 0.03,0 0.06,-0.01 0.1,-0.01 0.04,-0.01 0.09,-0.01 0.15,-0.01 0.06,0 0.11,0 0.15,0.01 0.04,0 0.07,0.01 0.1,0.01 0.02,0.01 0.04,0.02 0.05,0.03 0.01,0.01 0.01,0.03 0.01,0.04l0 1.5c0,0.05 0,0.1 0,0.15 0,0.05 0,0.11 -0.01,0.16l0.01 0c0.02,-0.05 0.06,-0.1 0.1,-0.16 0.04,-0.06 0.08,-0.12 0.13,-0.18l1.07 -1.47c0.01,-0.02 0.03,-0.03 0.04,-0.04 0.01,-0.01 0.03,-0.02 0.05,-0.03 0.02,0 0.05,-0.01 0.08,-0.01 0.03,-0.01 0.07,-0.01 0.12,-0.01 0.06,0 0.11,0 0.15,0.01 0.04,0 0.07,0.01 0.09,0.01 0.02,0.01 0.04,0.02 0.05,0.03 0,0.01 0.01,0.03 0.01,0.04l0 2.69zm3.92 -0.36l0 0c0,0.04 0,0.07 -0.01,0.09 0,0.03 0,0.05 -0.01,0.07 0,0.02 -0.01,0.03 -0.02,0.05 0,0.01 -0.02,0.03 -0.03,0.04 -0.02,0.02 -0.06,0.04 -0.11,0.07 -0.05,0.02 -0.11,0.05 -0.18,0.07 -0.07,0.03 -0.15,0.05 -0.25,0.06 -0.09,0.02 -0.19,0.03 -0.3,0.03 -0.21,0 -0.4,-0.03 -0.57,-0.09 -0.17,-0.06 -0.32,-0.15 -0.44,-0.27 -0.12,-0.12 -0.21,-0.27 -0.27,-0.45 -0.07,-0.18 -0.1,-0.38 -0.1,-0.62 0,-0.24 0.04,-0.45 0.11,-0.64 0.07,-0.19 0.16,-0.35 0.29,-0.47 0.13,-0.13 0.28,-0.23 0.45,-0.29 0.18,-0.07 0.37,-0.1 0.58,-0.1 0.09,0 0.17,0.01 0.25,0.02 0.08,0.01 0.16,0.03 0.22,0.05 0.07,0.02 0.13,0.05 0.19,0.07 0.05,0.03 0.09,0.06 0.11,0.08 0.02,0.01 0.04,0.03 0.04,0.04 0.01,0.02 0.02,0.03 0.02,0.05 0.01,0.03 0.01,0.05 0.01,0.08 0.01,0.03 0.01,0.06 0.01,0.1 0,0.04 0,0.08 -0.01,0.11 0,0.03 -0.01,0.06 -0.01,0.08 -0.01,0.02 -0.02,0.03 -0.03,0.04 -0.01,0.01 -0.03,0.01 -0.04,0.01 -0.02,0 -0.05,-0.01 -0.09,-0.04 -0.04,-0.02 -0.08,-0.05 -0.14,-0.08 -0.06,-0.03 -0.13,-0.06 -0.21,-0.09 -0.08,-0.02 -0.18,-0.04 -0.29,-0.04 -0.12,0 -0.23,0.03 -0.33,0.07 -0.09,0.05 -0.18,0.11 -0.24,0.2 -0.07,0.09 -0.12,0.19 -0.16,0.31 -0.03,0.12 -0.05,0.26 -0.05,0.41 0,0.17 0.02,0.31 0.06,0.43 0.03,0.12 0.09,0.22 0.16,0.3 0.07,0.08 0.15,0.14 0.25,0.18 0.09,0.04 0.21,0.06 0.33,0.06 0.11,0 0.21,-0.01 0.29,-0.04 0.08,-0.02 0.15,-0.05 0.21,-0.08 0.05,-0.03 0.1,-0.05 0.14,-0.08 0.04,-0.02 0.07,-0.03 0.09,-0.03 0.01,0 0.03,0 0.03,0.01 0.01,0 0.02,0.01 0.03,0.03 0.01,0.02 0.01,0.04 0.01,0.08 0.01,0.03 0.01,0.07 0.01,0.12zm2.86 0.36l0 0c0,0.01 -0.01,0.02 -0.02,0.03 -0.01,0.02 -0.02,0.02 -0.05,0.03 -0.02,0.01 -0.05,0.01 -0.09,0.02 -0.04,0 -0.09,0 -0.15,0 -0.07,0 -0.12,0 -0.16,0 -0.04,-0.01 -0.07,-0.01 -0.09,-0.02 -0.03,-0.01 -0.04,-0.01 -0.05,-0.03 -0.01,-0.01 -0.02,-0.02 -0.02,-0.03l0 -2.28 -1.15 0 0 2.28c0,0.01 -0.01,0.02 -0.02,0.03 -0.01,0.02 -0.02,0.02 -0.05,0.03 -0.02,0.01 -0.05,0.01 -0.09,0.02 -0.04,0 -0.1,0 -0.16,0 -0.06,0 -0.11,0 -0.15,0 -0.04,-0.01 -0.07,-0.01 -0.1,-0.02 -0.02,-0.01 -0.04,-0.01 -0.05,-0.03 -0.01,-0.01 -0.01,-0.02 -0.01,-0.03l0 -2.58c0,-0.06 0.02,-0.11 0.05,-0.14 0.03,-0.03 0.08,-0.04 0.13,-0.04l2.05 0c0.05,0 0.1,0.01 0.13,0.04 0.03,0.03 0.05,0.08 0.05,0.14l0 2.58zm3.45 -1.38l0 0c0,0.24 -0.03,0.45 -0.09,0.63 -0.07,0.19 -0.16,0.34 -0.29,0.47 -0.12,0.13 -0.28,0.23 -0.46,0.3 -0.19,0.07 -0.4,0.1 -0.65,0.1 -0.24,0 -0.45,-0.03 -0.63,-0.09 -0.18,-0.05 -0.33,-0.14 -0.45,-0.26 -0.11,-0.12 -0.2,-0.27 -0.26,-0.45 -0.06,-0.18 -0.09,-0.4 -0.09,-0.65 0,-0.23 0.03,-0.44 0.09,-0.62 0.07,-0.18 0.16,-0.34 0.29,-0.47 0.12,-0.12 0.28,-0.22 0.46,-0.29 0.19,-0.07 0.4,-0.1 0.65,-0.1 0.23,0 0.44,0.02 0.62,0.08 0.18,0.06 0.33,0.15 0.45,0.26 0.12,0.12 0.21,0.27 0.27,0.45 0.06,0.18 0.09,0.39 0.09,0.64zm-0.66 0.03l0 0c0,-0.15 -0.01,-0.28 -0.03,-0.41 -0.03,-0.12 -0.07,-0.22 -0.13,-0.31 -0.07,-0.09 -0.15,-0.15 -0.25,-0.2 -0.1,-0.05 -0.23,-0.07 -0.38,-0.07 -0.16,0 -0.29,0.03 -0.39,0.08 -0.1,0.05 -0.19,0.12 -0.25,0.21 -0.06,0.09 -0.11,0.2 -0.13,0.31 -0.03,0.12 -0.04,0.25 -0.04,0.38 0,0.16 0.01,0.3 0.03,0.42 0.03,0.12 0.07,0.23 0.13,0.32 0.06,0.08 0.14,0.15 0.25,0.2 0.1,0.04 0.23,0.07 0.38,0.07 0.16,0 0.28,-0.03 0.39,-0.08 0.1,-0.06 0.19,-0.13 0.25,-0.22 0.06,-0.09 0.11,-0.19 0.13,-0.31 0.03,-0.12 0.04,-0.25 0.04,-0.39zm3.31 -0.55l0 0c0,0.16 -0.03,0.3 -0.08,0.42 -0.06,0.12 -0.13,0.23 -0.24,0.31 -0.1,0.08 -0.23,0.15 -0.38,0.19 -0.15,0.04 -0.33,0.07 -0.53,0.07l-0.26 0 0 0.9c0,0.02 0,0.03 -0.01,0.04 -0.01,0.01 -0.03,0.02 -0.06,0.03 -0.02,0.01 -0.05,0.01 -0.09,0.02 -0.04,0 -0.09,0 -0.15,0 -0.07,0 -0.12,0 -0.16,0 -0.04,-0.01 -0.07,-0.01 -0.09,-0.02 -0.03,-0.01 -0.04,-0.02 -0.05,-0.03 -0.01,-0.01 -0.02,-0.02 -0.02,-0.04l0 -2.55c0,-0.07 0.02,-0.12 0.06,-0.15 0.04,-0.04 0.09,-0.05 0.15,-0.05l0.73 0c0.08,0 0.15,0 0.21,0 0.07,0.01 0.15,0.02 0.24,0.04 0.09,0.01 0.19,0.04 0.28,0.09 0.1,0.04 0.18,0.1 0.24,0.17 0.07,0.07 0.12,0.15 0.16,0.24 0.03,0.1 0.05,0.2 0.05,0.32zm-0.66 0.04l0 0c0,-0.1 -0.02,-0.18 -0.05,-0.25 -0.04,-0.06 -0.09,-0.11 -0.15,-0.14 -0.05,-0.03 -0.11,-0.05 -0.17,-0.06 -0.06,-0.01 -0.13,-0.01 -0.19,-0.01l-0.27 0 0 0.96 0.28 0c0.1,0 0.19,-0.01 0.25,-0.03 0.07,-0.03 0.13,-0.06 0.17,-0.11 0.04,-0.04 0.08,-0.1 0.1,-0.16 0.02,-0.06 0.03,-0.13 0.03,-0.2zm3.18 -0.67l0 0c0,0.04 0,0.08 0,0.11 -0.01,0.03 -0.01,0.06 -0.02,0.07 -0.01,0.02 -0.02,0.04 -0.03,0.04 -0.01,0.01 -0.03,0.02 -0.04,0.02l-0.77 0 0 2.28c0,0.02 -0.01,0.03 -0.02,0.04 -0.01,0.01 -0.03,0.02 -0.05,0.03 -0.03,0.01 -0.06,0.01 -0.1,0.02 -0.04,0 -0.09,0 -0.15,0 -0.06,0 -0.11,0 -0.15,0 -0.04,-0.01 -0.07,-0.01 -0.1,-0.02 -0.02,-0.01 -0.04,-0.02 -0.05,-0.03 -0.01,-0.01 -0.01,-0.02 -0.01,-0.04l0 -2.28 -0.78 0c-0.02,0 -0.03,-0.01 -0.04,-0.02 -0.01,0 -0.02,-0.02 -0.03,-0.04 -0.01,-0.01 -0.01,-0.04 -0.02,-0.07 0,-0.03 0,-0.07 0,-0.11 0,-0.04 0,-0.08 0,-0.11 0.01,-0.03 0.01,-0.05 0.02,-0.07 0.01,-0.02 0.02,-0.03 0.03,-0.04 0.01,-0.01 0.02,-0.01 0.04,-0.01l2.18 0c0.01,0 0.03,0 0.04,0.01 0.01,0.01 0.02,0.02 0.03,0.04 0.01,0.02 0.01,0.04 0.02,0.07 0,0.03 0,0.07 0,0.11zm2.89 2.53l0 0c0,0.01 -0.01,0.02 -0.02,0.03 -0.01,0.02 -0.03,0.02 -0.05,0.03 -0.03,0.01 -0.06,0.01 -0.1,0.02 -0.04,0 -0.09,0 -0.15,0 -0.06,0 -0.11,0 -0.15,0 -0.04,-0.01 -0.07,-0.01 -0.1,-0.02 -0.02,-0.01 -0.04,-0.01 -0.05,-0.03 -0.01,-0.01 -0.01,-0.02 -0.01,-0.03l0 -1.5c0,-0.06 0,-0.11 0,-0.17 0,-0.05 0.01,-0.1 0.01,-0.14l-0.01 0c-0.01,0.02 -0.02,0.04 -0.04,0.07 -0.02,0.03 -0.04,0.06 -0.06,0.09 -0.02,0.03 -0.04,0.06 -0.06,0.09 -0.02,0.03 -0.05,0.06 -0.07,0.09l-1.07 1.47c-0.02,0.01 -0.03,0.03 -0.04,0.04 -0.02,0.01 -0.03,0.02 -0.06,0.03 -0.02,0 -0.04,0.01 -0.07,0.01 -0.04,0 -0.08,0 -0.13,0 -0.06,0 -0.11,0 -0.15,0 -0.03,-0.01 -0.06,-0.01 -0.08,-0.02 -0.03,-0.01 -0.04,-0.01 -0.05,-0.03 -0.01,-0.01 -0.01,-0.02 -0.01,-0.04l0 -2.68c0,-0.01 0,-0.03 0.01,-0.04 0.01,-0.01 0.03,-0.02 0.06,-0.03 0.02,0 0.05,-0.01 0.09,-0.01 0.04,-0.01 0.09,-0.01 0.15,-0.01 0.07,0 0.12,0 0.16,0.01 0.04,0 0.07,0.01 0.09,0.01 0.03,0.01 0.04,0.02 0.05,0.03 0.01,0.01 0.02,0.03 0.02,0.04l0 1.5c0,0.05 0,0.1 0,0.15 -0.01,0.05 -0.01,0.11 -0.01,0.16l0 0c0.03,-0.05 0.06,-0.1 0.11,-0.16 0.04,-0.06 0.08,-0.12 0.12,-0.18l1.08 -1.47c0.01,-0.02 0.02,-0.03 0.04,-0.04 0.01,-0.01 0.03,-0.02 0.05,-0.03 0.02,0 0.05,-0.01 0.08,-0.01 0.03,-0.01 0.07,-0.01 0.12,-0.01 0.06,0 0.11,0 0.15,0.01 0.03,0 0.06,0.01 0.09,0.01 0.02,0.01 0.03,0.02 0.04,0.03 0.01,0.01 0.02,0.03 0.02,0.04l0 2.69zm2.91 -0.78l0 0c0,0.1 -0.02,0.19 -0.05,0.27 -0.03,0.09 -0.07,0.16 -0.12,0.22 -0.06,0.06 -0.12,0.12 -0.19,0.16 -0.08,0.05 -0.16,0.09 -0.25,0.12 -0.09,0.02 -0.18,0.05 -0.28,0.06 -0.11,0.01 -0.22,0.02 -0.34,0.02l-0.82 0c-0.06,0 -0.1,-0.01 -0.14,-0.04 -0.03,-0.03 -0.05,-0.08 -0.05,-0.14l0 -2.47c0,-0.07 0.02,-0.11 0.05,-0.14 0.04,-0.03 0.08,-0.04 0.14,-0.04l0.77 0c0.19,0 0.35,0.01 0.48,0.04 0.14,0.03 0.25,0.07 0.34,0.13 0.09,0.06 0.15,0.14 0.2,0.23 0.05,0.09 0.07,0.19 0.07,0.32 0,0.07 -0.01,0.13 -0.02,0.19 -0.02,0.06 -0.05,0.12 -0.09,0.17 -0.03,0.05 -0.08,0.09 -0.13,0.13 -0.06,0.04 -0.12,0.07 -0.19,0.09 0.09,0.01 0.17,0.04 0.25,0.08 0.07,0.03 0.14,0.08 0.19,0.14 0.05,0.05 0.1,0.12 0.13,0.2 0.03,0.08 0.05,0.16 0.05,0.26zm-0.81 -1.19l0 0c0,-0.06 -0.01,-0.11 -0.03,-0.16 -0.02,-0.04 -0.05,-0.08 -0.09,-0.11 -0.04,-0.03 -0.08,-0.05 -0.14,-0.07 -0.06,-0.01 -0.14,-0.02 -0.24,-0.02l-0.31 0 0 0.73 0.35 0c0.09,0 0.16,-0.01 0.21,-0.03 0.06,-0.02 0.1,-0.04 0.14,-0.08 0.04,-0.03 0.06,-0.07 0.08,-0.12 0.02,-0.04 0.03,-0.09 0.03,-0.14zm0.16 1.21l0 0c0,-0.07 -0.02,-0.12 -0.04,-0.18 -0.02,-0.05 -0.06,-0.09 -0.1,-0.13 -0.05,-0.03 -0.11,-0.06 -0.18,-0.08 -0.07,-0.02 -0.17,-0.03 -0.28,-0.03l-0.37 0 0 0.81 0.45 0c0.09,0 0.16,-0.01 0.22,-0.03 0.06,-0.01 0.11,-0.04 0.16,-0.07 0.04,-0.03 0.07,-0.07 0.1,-0.12 0.02,-0.05 0.04,-0.11 0.04,-0.17zm3.57 0.75l0 0c0,0.02 -0.01,0.03 -0.02,0.04 -0.01,0.01 -0.03,0.02 -0.05,0.03 -0.02,0.01 -0.06,0.01 -0.1,0.02 -0.04,0 -0.09,0 -0.15,0 -0.06,0 -0.11,0 -0.15,0 -0.04,-0.01 -0.07,-0.01 -0.1,-0.02 -0.02,-0.01 -0.04,-0.02 -0.05,-0.03 -0.01,-0.01 -0.01,-0.02 -0.01,-0.04l0 -1.14 -1.16 0 0 1.14c0,0.02 0,0.03 -0.01,0.04 -0.01,0.01 -0.03,0.02 -0.05,0.03 -0.03,0.01 -0.06,0.01 -0.1,0.02 -0.04,0 -0.09,0 -0.15,0 -0.06,0 -0.11,0 -0.15,0 -0.04,-0.01 -0.08,-0.01 -0.1,-0.02 -0.02,-0.01 -0.04,-0.02 -0.05,-0.03 -0.01,-0.01 -0.02,-0.02 -0.02,-0.04l0 -2.68c0,-0.01 0.01,-0.02 0.02,-0.03 0.01,-0.02 0.03,-0.03 0.05,-0.03 0.02,-0.01 0.06,-0.02 0.1,-0.02 0.04,-0.01 0.09,-0.01 0.15,-0.01 0.06,0 0.11,0 0.15,0.01 0.04,0 0.07,0.01 0.1,0.02 0.02,0 0.04,0.01 0.05,0.03 0.01,0.01 0.01,0.02 0.01,0.03l0 1.05 1.16 0 0 -1.05c0,-0.01 0,-0.02 0.01,-0.03 0.01,-0.02 0.03,-0.03 0.05,-0.03 0.03,-0.01 0.06,-0.02 0.1,-0.02 0.04,-0.01 0.09,-0.01 0.15,-0.01 0.06,0 0.11,0 0.15,0.01 0.04,0 0.08,0.01 0.1,0.02 0.02,0 0.04,0.01 0.05,0.03 0.01,0.01 0.02,0.02 0.02,0.03l0 2.68zm3.45 -1.37l0 0c0,0.24 -0.03,0.45 -0.09,0.63 -0.07,0.19 -0.16,0.34 -0.29,0.47 -0.12,0.13 -0.28,0.23 -0.47,0.3 -0.18,0.07 -0.4,0.1 -0.64,0.1 -0.24,0 -0.45,-0.03 -0.63,-0.09 -0.18,-0.05 -0.33,-0.14 -0.45,-0.26 -0.12,-0.12 -0.21,-0.27 -0.27,-0.45 -0.06,-0.18 -0.09,-0.4 -0.09,-0.65 0,-0.23 0.04,-0.44 0.1,-0.62 0.06,-0.18 0.16,-0.34 0.28,-0.47 0.13,-0.12 0.29,-0.22 0.47,-0.29 0.19,-0.07 0.4,-0.1 0.65,-0.1 0.23,0 0.44,0.02 0.62,0.08 0.18,0.06 0.33,0.15 0.45,0.26 0.12,0.12 0.21,0.27 0.27,0.45 0.06,0.18 0.09,0.39 0.09,0.64zm-0.66 0.03l0 0c0,-0.15 -0.01,-0.28 -0.04,-0.41 -0.02,-0.12 -0.07,-0.22 -0.13,-0.31 -0.06,-0.09 -0.14,-0.15 -0.24,-0.2 -0.1,-0.05 -0.23,-0.07 -0.38,-0.07 -0.16,0 -0.29,0.03 -0.39,0.08 -0.1,0.05 -0.19,0.12 -0.25,0.21 -0.07,0.09 -0.11,0.2 -0.14,0.31 -0.02,0.12 -0.04,0.25 -0.04,0.38 0,0.16 0.02,0.3 0.04,0.42 0.03,0.12 0.07,0.23 0.13,0.32 0.06,0.08 0.14,0.15 0.24,0.2 0.11,0.04 0.23,0.07 0.39,0.07 0.15,0 0.28,-0.03 0.39,-0.08 0.1,-0.06 0.18,-0.13 0.25,-0.22 0.06,-0.09 0.11,-0.19 0.13,-0.31 0.03,-0.12 0.04,-0.25 0.04,-0.39zm2.94 -1.18l0 0c0,0.05 0,0.09 0,0.12 -0.01,0.02 -0.01,0.05 -0.02,0.07 -0.01,0.02 -0.02,0.03 -0.03,0.04 -0.01,0 -0.03,0.01 -0.04,0.01l-1.03 0 0 2.29c0,0.01 0,0.02 -0.02,0.03 0,0.02 -0.02,0.02 -0.05,0.03 -0.02,0.01 -0.05,0.01 -0.09,0.02 -0.04,0 -0.09,0 -0.15,0 -0.06,0 -0.12,0 -0.16,0 -0.04,-0.01 -0.07,-0.01 -0.09,-0.02 -0.03,-0.01 -0.04,-0.01 -0.05,-0.03 -0.02,-0.01 -0.02,-0.02 -0.02,-0.03l0 -2.58c0,-0.06 0.02,-0.11 0.05,-0.14 0.04,-0.03 0.08,-0.04 0.14,-0.04l1.47 0c0.03,0 0.05,0.01 0.07,0.05 0.01,0.04 0.02,0.1 0.02,0.18zm3.01 1.15l0 0c0,0.24 -0.03,0.45 -0.1,0.63 -0.06,0.19 -0.16,0.34 -0.28,0.47 -0.13,0.13 -0.28,0.23 -0.47,0.3 -0.18,0.07 -0.4,0.1 -0.64,0.1 -0.24,0 -0.45,-0.03 -0.63,-0.09 -0.18,-0.05 -0.33,-0.14 -0.45,-0.26 -0.12,-0.12 -0.21,-0.27 -0.27,-0.45 -0.06,-0.18 -0.09,-0.4 -0.09,-0.65 0,-0.23 0.03,-0.44 0.1,-0.62 0.06,-0.18 0.15,-0.34 0.28,-0.47 0.13,-0.12 0.28,-0.22 0.47,-0.29 0.18,-0.07 0.4,-0.1 0.64,-0.1 0.24,0 0.45,0.02 0.62,0.08 0.18,0.06 0.33,0.15 0.45,0.26 0.12,0.12 0.21,0.27 0.28,0.45 0.06,0.18 0.09,0.39 0.09,0.64zm-0.66 0.03l0 0c0,-0.15 -0.01,-0.28 -0.04,-0.41 -0.02,-0.12 -0.07,-0.22 -0.13,-0.31 -0.06,-0.09 -0.14,-0.15 -0.24,-0.2 -0.11,-0.05 -0.23,-0.07 -0.39,-0.07 -0.15,0 -0.28,0.03 -0.38,0.08 -0.11,0.05 -0.19,0.12 -0.26,0.21 -0.06,0.09 -0.1,0.2 -0.13,0.31 -0.03,0.12 -0.04,0.25 -0.04,0.38 0,0.16 0.01,0.3 0.04,0.42 0.02,0.12 0.07,0.23 0.13,0.32 0.06,0.08 0.14,0.15 0.24,0.2 0.1,0.04 0.23,0.07 0.39,0.07 0.15,0 0.28,-0.03 0.38,-0.08 0.11,-0.06 0.19,-0.13 0.25,-0.22 0.07,-0.09 0.11,-0.19 0.14,-0.31 0.03,-0.12 0.04,-0.25 0.04,-0.39zm5.07 -0.03l0 0c0,0.24 -0.03,0.45 -0.09,0.63 -0.07,0.19 -0.16,0.34 -0.29,0.47 -0.12,0.13 -0.28,0.23 -0.46,0.3 -0.19,0.07 -0.4,0.1 -0.65,0.1 -0.24,0 -0.45,-0.03 -0.63,-0.09 -0.18,-0.05 -0.33,-0.14 -0.44,-0.26 -0.12,-0.12 -0.21,-0.27 -0.27,-0.45 -0.06,-0.18 -0.09,-0.4 -0.09,-0.65 0,-0.23 0.03,-0.44 0.09,-0.62 0.07,-0.18 0.16,-0.34 0.29,-0.47 0.12,-0.12 0.28,-0.22 0.46,-0.29 0.19,-0.07 0.41,-0.1 0.65,-0.1 0.23,0 0.44,0.02 0.62,0.08 0.18,0.06 0.33,0.15 0.45,0.26 0.12,0.12 0.21,0.27 0.27,0.45 0.06,0.18 0.09,0.39 0.09,0.64zm-0.66 0.03l0 0c0,-0.15 -0.01,-0.28 -0.03,-0.41 -0.03,-0.12 -0.07,-0.22 -0.13,-0.31 -0.07,-0.09 -0.15,-0.15 -0.25,-0.2 -0.1,-0.05 -0.23,-0.07 -0.38,-0.07 -0.16,0 -0.29,0.03 -0.39,0.08 -0.1,0.05 -0.19,0.12 -0.25,0.21 -0.06,0.09 -0.11,0.2 -0.13,0.31 -0.03,0.12 -0.04,0.25 -0.04,0.38 0,0.16 0.01,0.3 0.03,0.42 0.03,0.12 0.07,0.23 0.13,0.32 0.06,0.08 0.15,0.15 0.25,0.2 0.1,0.04 0.23,0.07 0.38,0.07 0.16,0 0.29,-0.03 0.39,-0.08 0.1,-0.06 0.19,-0.13 0.25,-0.22 0.06,-0.09 0.11,-0.19 0.14,-0.31 0.02,-0.12 0.03,-0.25 0.03,-0.39zm3.43 0.54l0 0c0,0.13 -0.02,0.25 -0.07,0.35 -0.05,0.11 -0.12,0.2 -0.21,0.28 -0.1,0.08 -0.22,0.14 -0.37,0.18 -0.15,0.05 -0.34,0.07 -0.58,0.07l-0.81 0c-0.06,0 -0.11,-0.01 -0.14,-0.04 -0.04,-0.03 -0.05,-0.08 -0.05,-0.15l0 -2.46c0,-0.07 0.01,-0.11 0.05,-0.14 0.03,-0.03 0.08,-0.04 0.13,-0.04l1.75 0c0.02,0 0.03,0 0.04,0.01 0.01,0 0.03,0.02 0.03,0.04 0.01,0.01 0.02,0.04 0.02,0.07 0.01,0.02 0.01,0.06 0.01,0.1 0,0.04 0,0.08 -0.01,0.11 0,0.03 -0.01,0.05 -0.02,0.07 0,0.02 -0.02,0.03 -0.03,0.04 -0.01,0.01 -0.02,0.01 -0.04,0.01l-1.31 0 0 0.7 0.52 0c0.2,0 0.36,0.02 0.49,0.06 0.13,0.03 0.24,0.08 0.33,0.15 0.09,0.07 0.15,0.16 0.2,0.25 0.05,0.1 0.07,0.22 0.07,0.34zm-0.63 0.04l0 0c0,-0.06 -0.02,-0.12 -0.04,-0.17 -0.02,-0.05 -0.05,-0.09 -0.1,-0.13 -0.04,-0.04 -0.09,-0.06 -0.16,-0.08 -0.07,-0.02 -0.16,-0.03 -0.27,-0.03l-0.41 0 0 0.82 0.41 0c0.11,0 0.19,-0.01 0.26,-0.03 0.06,-0.02 0.12,-0.04 0.16,-0.08 0.05,-0.03 0.08,-0.08 0.11,-0.13 0.02,-0.05 0.04,-0.11 0.04,-0.17zm3.89 -0.61l0 0c0,0.24 -0.03,0.45 -0.09,0.63 -0.07,0.19 -0.16,0.34 -0.29,0.47 -0.12,0.13 -0.28,0.23 -0.46,0.3 -0.19,0.07 -0.4,0.1 -0.65,0.1 -0.24,0 -0.45,-0.03 -0.63,-0.09 -0.18,-0.05 -0.33,-0.14 -0.45,-0.26 -0.11,-0.12 -0.2,-0.27 -0.26,-0.45 -0.06,-0.18 -0.09,-0.4 -0.09,-0.65 0,-0.23 0.03,-0.44 0.09,-0.62 0.07,-0.18 0.16,-0.34 0.29,-0.47 0.12,-0.12 0.28,-0.22 0.46,-0.29 0.19,-0.07 0.41,-0.1 0.65,-0.1 0.23,0 0.44,0.02 0.62,0.08 0.18,0.06 0.33,0.15 0.45,0.26 0.12,0.12 0.21,0.27 0.27,0.45 0.06,0.18 0.09,0.39 0.09,0.64zm-0.66 0.03l0 0c0,-0.15 -0.01,-0.28 -0.03,-0.41 -0.03,-0.12 -0.07,-0.22 -0.13,-0.31 -0.07,-0.09 -0.15,-0.15 -0.25,-0.2 -0.1,-0.05 -0.23,-0.07 -0.38,-0.07 -0.16,0 -0.29,0.03 -0.39,0.08 -0.1,0.05 -0.19,0.12 -0.25,0.21 -0.06,0.09 -0.11,0.2 -0.13,0.31 -0.03,0.12 -0.04,0.25 -0.04,0.38 0,0.16 0.01,0.3 0.03,0.42 0.03,0.12 0.07,0.23 0.13,0.32 0.06,0.08 0.15,0.15 0.25,0.2 0.1,0.04 0.23,0.07 0.38,0.07 0.16,0 0.29,-0.03 0.39,-0.08 0.1,-0.06 0.19,-0.13 0.25,-0.22 0.06,-0.09 0.11,-0.19 0.13,-0.31 0.03,-0.12 0.04,-0.25 0.04,-0.39z"/>
    <path class="fil5" d="M144.7 54.87c0,0.16 -0.03,0.3 -0.08,0.42 -0.06,0.12 -0.13,0.23 -0.24,0.31 -0.1,0.08 -0.23,0.15 -0.38,0.19 -0.15,0.04 -0.33,0.07 -0.53,0.07l-0.26 0 0 0.9c0,0.02 0,0.03 -0.01,0.04 -0.02,0.01 -0.03,0.02 -0.06,0.03 -0.02,0.01 -0.05,0.01 -0.09,0.02 -0.04,0 -0.09,0 -0.15,0 -0.06,0 -0.12,0 -0.16,0 -0.04,-0.01 -0.07,-0.01 -0.09,-0.02 -0.03,-0.01 -0.04,-0.02 -0.05,-0.03 -0.01,-0.01 -0.02,-0.02 -0.02,-0.04l0 -2.55c0,-0.07 0.02,-0.12 0.06,-0.15 0.04,-0.04 0.09,-0.05 0.16,-0.05l0.72 0c0.08,0 0.15,0 0.21,0 0.07,0.01 0.15,0.02 0.24,0.04 0.09,0.01 0.19,0.04 0.28,0.09 0.1,0.04 0.18,0.1 0.24,0.17 0.07,0.07 0.12,0.15 0.16,0.24 0.03,0.1 0.05,0.2 0.05,0.32zm-0.66 0.04l0 0c0,-0.1 -0.02,-0.18 -0.05,-0.25 -0.04,-0.06 -0.09,-0.11 -0.15,-0.14 -0.05,-0.03 -0.11,-0.05 -0.17,-0.06 -0.06,-0.01 -0.13,-0.01 -0.19,-0.01l-0.27 0 0 0.96 0.28 0c0.1,0 0.19,-0.01 0.25,-0.03 0.07,-0.03 0.13,-0.06 0.17,-0.11 0.04,-0.04 0.08,-0.1 0.1,-0.16 0.02,-0.06 0.03,-0.13 0.03,-0.2zm2.59 1.15l0 0c-0.07,0.16 -0.14,0.3 -0.21,0.4 -0.06,0.11 -0.14,0.19 -0.21,0.26 -0.08,0.06 -0.17,0.1 -0.26,0.13 -0.09,0.02 -0.19,0.03 -0.31,0.03 -0.04,0 -0.09,0 -0.13,-0.01 -0.04,0 -0.08,-0.01 -0.12,-0.02 -0.03,-0.01 -0.06,-0.02 -0.09,-0.03 -0.03,-0.01 -0.05,-0.02 -0.06,-0.03 -0.01,-0.01 -0.02,-0.02 -0.03,-0.03 -0.01,-0.02 -0.01,-0.03 -0.02,-0.05 0,-0.02 -0.01,-0.05 -0.01,-0.08 0,-0.03 0,-0.07 0,-0.12 0,-0.08 0,-0.14 0.02,-0.18 0.01,-0.03 0.03,-0.05 0.06,-0.05 0.02,0 0.03,0 0.05,0.01 0.02,0.01 0.04,0.02 0.06,0.04 0.03,0.01 0.06,0.02 0.09,0.03 0.03,0.01 0.07,0.01 0.11,0.01 0.04,0 0.07,0 0.1,-0.01 0.03,0 0.05,-0.02 0.08,-0.04 0.02,-0.02 0.05,-0.04 0.08,-0.08 0.02,-0.03 0.05,-0.08 0.08,-0.13l-1.02 -1.9c-0.02,-0.05 -0.04,-0.08 -0.04,-0.11 0,-0.03 0,-0.05 0.02,-0.07 0.02,-0.01 0.05,-0.02 0.1,-0.03 0.04,0 0.11,-0.01 0.18,-0.01 0.08,0 0.14,0 0.18,0.01 0.05,0 0.08,0.01 0.11,0.02 0.03,0.01 0.05,0.02 0.06,0.04 0.01,0.02 0.03,0.04 0.04,0.07l0.44 0.86c0.05,0.09 0.09,0.18 0.13,0.27 0.05,0.09 0.09,0.19 0.13,0.28l0.01 0c0.03,-0.1 0.06,-0.19 0.1,-0.29 0.03,-0.09 0.07,-0.19 0.12,-0.29l0.35 -0.87c0.01,-0.02 0.02,-0.04 0.03,-0.05 0.02,-0.01 0.03,-0.02 0.06,-0.03 0.03,-0.01 0.06,-0.01 0.11,-0.01 0.04,-0.01 0.1,-0.01 0.17,-0.01 0.07,0 0.13,0 0.17,0.01 0.05,0 0.08,0.01 0.1,0.02 0.02,0.02 0.03,0.03 0.02,0.06 0,0.02 -0.01,0.05 -0.02,0.08l-0.83 1.9zm3.7 1.45l0 0 0 -1.02c0,-0.04 -0.01,-0.07 -0.03,-0.09 -0.02,-0.02 -0.05,-0.03 -0.09,-0.03l-0.26 0 0 -2.18c0,-0.06 -0.02,-0.11 -0.05,-0.14 -0.03,-0.03 -0.08,-0.04 -0.13,-0.04l-1.58 0c-0.06,0 -0.1,0.01 -0.13,0.04 -0.02,0.03 -0.04,0.08 -0.05,0.14 -0.03,0.27 -0.07,0.5 -0.1,0.7 -0.03,0.2 -0.06,0.37 -0.09,0.52 -0.03,0.14 -0.06,0.26 -0.09,0.36 -0.03,0.1 -0.06,0.19 -0.1,0.26 -0.03,0.07 -0.06,0.14 -0.09,0.19 -0.04,0.05 -0.08,0.1 -0.11,0.15l-0.15 0c-0.04,0 -0.07,0.01 -0.09,0.03 -0.02,0.02 -0.03,0.05 -0.02,0.09l0 1.02c0,0.01 0,0.03 0.01,0.04 0.01,0.01 0.02,0.01 0.04,0.02 0.03,0.01 0.05,0.01 0.09,0.02 0.03,0 0.08,0 0.13,0 0.06,0 0.1,0 0.14,0 0.03,-0.01 0.06,-0.01 0.08,-0.02 0.02,-0.01 0.04,-0.01 0.05,-0.02 0.01,-0.01 0.01,-0.03 0.01,-0.04l0 -0.67 2.06 0 0 0.67c0,0.01 0,0.03 0.01,0.04 0.01,0.01 0.03,0.01 0.05,0.02 0.02,0.01 0.05,0.01 0.08,0.02 0.03,0 0.08,0 0.13,0 0.06,0 0.1,0 0.14,0 0.03,-0.01 0.06,-0.01 0.08,-0.02 0.02,-0.01 0.04,-0.01 0.05,-0.02 0,-0.01 0.01,-0.03 0.01,-0.04zm-1.01 -3.04l0 0 0 1.9 -1.25 0c0.03,-0.04 0.07,-0.08 0.1,-0.13 0.03,-0.05 0.06,-0.11 0.09,-0.17 0.03,-0.07 0.06,-0.15 0.09,-0.24 0.03,-0.09 0.05,-0.2 0.08,-0.33 0.03,-0.13 0.06,-0.28 0.08,-0.44 0.03,-0.17 0.06,-0.37 0.09,-0.59l0.72 0zm4.13 0.92l0 0c0,0.24 -0.03,0.45 -0.09,0.63 -0.07,0.19 -0.16,0.34 -0.29,0.47 -0.12,0.13 -0.28,0.23 -0.47,0.3 -0.18,0.07 -0.4,0.1 -0.64,0.1 -0.24,0 -0.45,-0.03 -0.63,-0.09 -0.18,-0.05 -0.33,-0.14 -0.45,-0.26 -0.12,-0.12 -0.21,-0.27 -0.27,-0.45 -0.06,-0.18 -0.09,-0.4 -0.09,-0.65 0,-0.23 0.03,-0.44 0.1,-0.62 0.06,-0.18 0.16,-0.34 0.28,-0.47 0.13,-0.12 0.28,-0.22 0.47,-0.29 0.19,-0.07 0.4,-0.1 0.65,-0.1 0.23,0 0.44,0.02 0.62,0.08 0.18,0.06 0.33,0.15 0.45,0.26 0.12,0.12 0.21,0.27 0.27,0.45 0.06,0.18 0.09,0.39 0.09,0.64zm-0.66 0.03l0 0c0,-0.15 -0.01,-0.28 -0.04,-0.41 -0.02,-0.12 -0.07,-0.22 -0.13,-0.31 -0.06,-0.09 -0.14,-0.15 -0.24,-0.2 -0.1,-0.05 -0.23,-0.07 -0.38,-0.07 -0.16,0 -0.29,0.03 -0.39,0.08 -0.1,0.05 -0.19,0.12 -0.25,0.21 -0.07,0.09 -0.11,0.2 -0.14,0.31 -0.02,0.12 -0.04,0.25 -0.04,0.38 0,0.16 0.02,0.3 0.04,0.42 0.03,0.12 0.07,0.23 0.13,0.32 0.06,0.08 0.14,0.15 0.24,0.2 0.11,0.04 0.23,0.07 0.39,0.07 0.15,0 0.28,-0.03 0.39,-0.08 0.1,-0.06 0.18,-0.13 0.25,-0.22 0.06,-0.09 0.11,-0.19 0.13,-0.31 0.03,-0.12 0.04,-0.25 0.04,-0.39zm3.43 0.57l0 0c0,0.1 -0.02,0.19 -0.05,0.27 -0.03,0.09 -0.07,0.16 -0.12,0.22 -0.06,0.06 -0.12,0.12 -0.19,0.16 -0.08,0.05 -0.16,0.09 -0.25,0.12 -0.09,0.02 -0.18,0.05 -0.28,0.06 -0.11,0.01 -0.22,0.02 -0.34,0.02l-0.82 0c-0.06,0 -0.1,-0.01 -0.14,-0.04 -0.03,-0.03 -0.05,-0.08 -0.05,-0.14l0 -2.47c0,-0.07 0.02,-0.11 0.05,-0.14 0.04,-0.03 0.08,-0.04 0.14,-0.04l0.77 0c0.19,0 0.35,0.01 0.48,0.04 0.14,0.03 0.25,0.07 0.34,0.13 0.09,0.06 0.15,0.14 0.2,0.23 0.05,0.09 0.07,0.19 0.07,0.32 0,0.07 0,0.13 -0.02,0.19 -0.02,0.06 -0.05,0.12 -0.09,0.17 -0.03,0.05 -0.08,0.09 -0.13,0.13 -0.06,0.04 -0.12,0.07 -0.19,0.09 0.09,0.01 0.17,0.04 0.25,0.08 0.07,0.03 0.14,0.08 0.19,0.14 0.06,0.05 0.1,0.12 0.13,0.2 0.03,0.08 0.05,0.16 0.05,0.26zm-0.81 -1.19l0 0c0,-0.06 -0.01,-0.11 -0.03,-0.16 -0.02,-0.04 -0.05,-0.08 -0.09,-0.11 -0.04,-0.03 -0.08,-0.05 -0.14,-0.07 -0.06,-0.01 -0.14,-0.02 -0.24,-0.02l-0.31 0 0 0.73 0.35 0c0.09,0 0.16,-0.01 0.21,-0.03 0.06,-0.02 0.1,-0.04 0.14,-0.08 0.04,-0.03 0.06,-0.07 0.08,-0.12 0.02,-0.04 0.03,-0.09 0.03,-0.14zm0.16 1.21l0 0c0,-0.07 -0.02,-0.12 -0.04,-0.18 -0.02,-0.05 -0.06,-0.09 -0.1,-0.13 -0.05,-0.03 -0.11,-0.06 -0.18,-0.08 -0.07,-0.02 -0.17,-0.03 -0.28,-0.03l-0.37 0 0 0.81 0.45 0c0.09,0 0.16,-0.01 0.22,-0.03 0.06,-0.01 0.11,-0.04 0.16,-0.07 0.04,-0.03 0.07,-0.07 0.1,-0.12 0.02,-0.05 0.04,-0.11 0.04,-0.17zm3.63 0.62l0 0c0.02,0.05 0.03,0.09 0.03,0.12 0.01,0.03 0,0.05 -0.01,0.07 -0.02,0.02 -0.05,0.02 -0.1,0.03 -0.04,0 -0.1,0 -0.18,0 -0.08,0 -0.15,0 -0.19,0 -0.05,0 -0.08,-0.01 -0.11,-0.01 -0.02,-0.01 -0.04,-0.02 -0.05,-0.03 -0.01,-0.01 -0.01,-0.03 -0.02,-0.05l-0.21 -0.57 -1.16 0 -0.2 0.56c0,0.02 -0.01,0.04 -0.02,0.05 -0.01,0.01 -0.03,0.02 -0.05,0.03 -0.02,0.01 -0.06,0.02 -0.1,0.02 -0.04,0 -0.1,0 -0.16,0 -0.08,0 -0.14,0 -0.18,0 -0.04,-0.01 -0.07,-0.02 -0.08,-0.03 -0.02,-0.02 -0.02,-0.05 -0.02,-0.08 0.01,-0.03 0.02,-0.07 0.04,-0.12l0.95 -2.51c0.01,-0.03 0.02,-0.05 0.03,-0.06 0.02,-0.02 0.04,-0.03 0.06,-0.04 0.03,-0.01 0.07,-0.01 0.12,-0.01 0.05,-0.01 0.12,-0.01 0.2,-0.01 0.09,0 0.17,0 0.22,0.01 0.06,0 0.1,0 0.13,0.01 0.03,0.01 0.05,0.02 0.07,0.04 0.01,0.01 0.02,0.04 0.03,0.06l0.96 2.52zm-1.42 -2.08l0 0 0 0 -0.44 1.2 0.88 0 -0.44 -1.2zm4.27 2.21l0 0c0,0.02 -0.01,0.03 -0.02,0.04 -0.01,0.01 -0.03,0.02 -0.05,0.03 -0.03,0.01 -0.06,0.01 -0.1,0.02 -0.04,0 -0.09,0 -0.15,0 -0.06,0 -0.11,0 -0.15,0 -0.04,-0.01 -0.08,-0.01 -0.1,-0.02 -0.02,-0.01 -0.04,-0.02 -0.05,-0.03 -0.01,-0.01 -0.01,-0.02 -0.01,-0.04l0 -1.14 -1.16 0 0 1.14c0,0.02 0,0.03 -0.01,0.04 -0.01,0.01 -0.03,0.02 -0.05,0.03 -0.03,0.01 -0.06,0.01 -0.1,0.02 -0.04,0 -0.09,0 -0.15,0 -0.06,0 -0.11,0 -0.15,0 -0.05,-0.01 -0.08,-0.01 -0.1,-0.02 -0.03,-0.01 -0.04,-0.02 -0.05,-0.03 -0.01,-0.01 -0.02,-0.02 -0.02,-0.04l0 -2.68c0,-0.01 0.01,-0.02 0.02,-0.03 0.01,-0.02 0.02,-0.03 0.05,-0.03 0.02,-0.01 0.05,-0.02 0.1,-0.02 0.04,-0.01 0.09,-0.01 0.15,-0.01 0.06,0 0.11,0 0.15,0.01 0.04,0 0.07,0.01 0.1,0.02 0.02,0 0.04,0.01 0.05,0.03 0.01,0.01 0.01,0.02 0.01,0.03l0 1.05 1.16 0 0 -1.05c0,-0.01 0,-0.02 0.01,-0.03 0.01,-0.02 0.03,-0.03 0.05,-0.03 0.02,-0.01 0.06,-0.02 0.1,-0.02 0.04,-0.01 0.09,-0.01 0.15,-0.01 0.06,0 0.11,0 0.15,0.01 0.04,0 0.07,0.01 0.1,0.02 0.02,0 0.04,0.01 0.05,0.03 0.01,0.01 0.02,0.02 0.02,0.03l0 2.68zm3.19 0.01l0 0c0,0.01 -0.01,0.02 -0.02,0.03 -0.01,0.02 -0.03,0.02 -0.05,0.03 -0.03,0.01 -0.06,0.01 -0.1,0.02 -0.04,0 -0.09,0 -0.15,0 -0.06,0 -0.11,0 -0.15,0 -0.04,-0.01 -0.07,-0.01 -0.1,-0.02 -0.02,-0.01 -0.04,-0.01 -0.05,-0.03 -0.01,-0.01 -0.01,-0.02 -0.01,-0.03l0 -1.5c0,-0.06 0,-0.11 0,-0.17 0,-0.05 0.01,-0.1 0.01,-0.14l-0.01 0c-0.01,0.02 -0.02,0.04 -0.04,0.07 -0.02,0.03 -0.04,0.06 -0.06,0.09 -0.02,0.03 -0.04,0.06 -0.06,0.09 -0.02,0.03 -0.05,0.06 -0.07,0.09l-1.07 1.47c-0.02,0.01 -0.03,0.03 -0.04,0.04 -0.02,0.01 -0.03,0.02 -0.06,0.03 -0.02,0 -0.04,0.01 -0.07,0.01 -0.04,0 -0.08,0 -0.13,0 -0.06,0 -0.11,0 -0.15,0 -0.03,-0.01 -0.06,-0.01 -0.08,-0.02 -0.03,-0.01 -0.04,-0.01 -0.05,-0.03 -0.01,-0.01 -0.01,-0.02 -0.01,-0.04l0 -2.68c0,-0.01 0,-0.03 0.01,-0.04 0.01,-0.01 0.03,-0.02 0.06,-0.03 0.02,0 0.05,-0.01 0.09,-0.01 0.04,-0.01 0.09,-0.01 0.15,-0.01 0.07,0 0.12,0 0.16,0.01 0.04,0 0.07,0.01 0.09,0.01 0.03,0.01 0.04,0.02 0.05,0.03 0.01,0.01 0.02,0.03 0.02,0.04l0 1.5c0,0.05 0,0.1 0,0.15 -0.01,0.05 -0.01,0.11 -0.01,0.16l0 0c0.03,-0.05 0.06,-0.1 0.11,-0.16 0.04,-0.06 0.08,-0.12 0.12,-0.18l1.08 -1.47c0.01,-0.02 0.02,-0.03 0.04,-0.04 0.01,-0.01 0.03,-0.02 0.05,-0.03 0.02,0 0.05,-0.01 0.08,-0.01 0.03,-0.01 0.07,-0.01 0.12,-0.01 0.06,0 0.11,0 0.15,0.01 0.03,0 0.06,0.01 0.09,0.01 0.02,0.01 0.03,0.02 0.04,0.03 0.01,0.01 0.02,0.03 0.02,0.04l0 2.69zm2.8 0l0 0c0,0.01 0,0.02 -0.01,0.03 -0.01,0.02 -0.03,0.02 -0.05,0.03 -0.02,0.01 -0.06,0.01 -0.1,0.02 -0.04,0 -0.09,0 -0.15,0 -0.06,0 -0.11,0 -0.15,0 -0.04,-0.01 -0.07,-0.01 -0.1,-0.02 -0.02,-0.01 -0.04,-0.01 -0.05,-0.03 -0.01,-0.01 -0.01,-0.02 -0.01,-0.03l0 -1.06 -0.23 0c-0.1,0 -0.17,0 -0.22,0.02 -0.05,0.02 -0.1,0.05 -0.14,0.08 -0.04,0.04 -0.07,0.09 -0.1,0.14 -0.03,0.05 -0.06,0.12 -0.09,0.19l-0.23 0.62c-0.01,0.01 -0.02,0.03 -0.04,0.04 -0.01,0.01 -0.03,0.02 -0.05,0.03 -0.03,0.01 -0.06,0.02 -0.11,0.02 -0.04,0 -0.1,0 -0.16,0 -0.08,0 -0.13,0 -0.18,0 -0.04,-0.01 -0.07,-0.01 -0.09,-0.02 -0.02,-0.01 -0.04,-0.02 -0.05,-0.03 0,-0.01 0,-0.02 0,-0.03 0,-0.02 0,-0.03 0,-0.06 0.01,-0.02 0.02,-0.05 0.04,-0.09l0.23 -0.56c0.03,-0.07 0.06,-0.13 0.09,-0.19 0.04,-0.05 0.07,-0.1 0.11,-0.14 0.04,-0.05 0.08,-0.08 0.12,-0.11 0.05,-0.03 0.1,-0.05 0.15,-0.07 -0.1,-0.03 -0.19,-0.06 -0.26,-0.1 -0.08,-0.04 -0.14,-0.09 -0.2,-0.15 -0.05,-0.05 -0.09,-0.12 -0.11,-0.2 -0.03,-0.07 -0.04,-0.16 -0.04,-0.25 0,-0.13 0.02,-0.24 0.07,-0.35 0.05,-0.1 0.12,-0.19 0.22,-0.26 0.09,-0.08 0.21,-0.13 0.36,-0.17 0.14,-0.04 0.34,-0.06 0.59,-0.06l0.76 0c0.05,0 0.09,0.01 0.13,0.04 0.03,0.03 0.05,0.07 0.05,0.14l0 2.58zm-0.62 -2.32l0 0 -0.33 0c-0.13,0 -0.23,0.01 -0.3,0.03 -0.07,0.02 -0.12,0.05 -0.16,0.08 -0.04,0.04 -0.08,0.08 -0.09,0.13 -0.02,0.05 -0.03,0.11 -0.03,0.17 0,0.06 0.01,0.11 0.03,0.16 0.02,0.05 0.05,0.1 0.09,0.14 0.05,0.03 0.1,0.06 0.17,0.08 0.06,0.02 0.16,0.03 0.29,0.03l0.33 0 0 -0.82z"/>
   </g>
  </g>
 </g>
</svg>
